<svg xmlns="http://www.w3.org/2000/svg" viewBox="0 0 501 501">
  <defs>
    <style>
      .cls-1, .cls-2, .cls-3 { fill: none; stroke: #000; stroke-miterlimit: 10; } .cls-2 { stroke-width: 0.5px; } .cls-3 { stroke-width: 0.25px; }
    </style>
  </defs>
  <g id="Layer_2" data-name="Layer 2">
    <g id="NAT">
      <circle id="border-2" cx="250.5" cy="250.5" r="250" class="cls-1" data-name="border"/>
      <g id="line">
        <path d="M175.18 386.05c-5.2 4.16-12.91 6.54-23.55 10.31-10.45 3.7-20.47 8.58-31 12-4.95 1.61-7.48 2.4-10.63 3.45-4.26 1.42-7.27 2.5-8.37 2.88-9.07 3.18-18.26 5.58-22.21 6.64-2.46.66-5.42 1.49-9 2.54" class="cls-2"/>
        <path d="M167.95 324.16c.83 1.56 1.78 3.41 2.92 5.93 1 2.12 2.38 5.28 3.45 8.35a59.53 59.53 0 0 1 2.78 12.89 90.87 90.87 0 0 1 .67 10V366c0 4.79.19 5.38.17 8.17a52.74 52.74 0 0 1-.5 7.67c-.56 3.83-.88 5.82-2.33 7.83a11.33 11.33 0 0 1-4.67 3.67m166.44-75.46a42.08 42.08 0 0 0-3.38 10.93 41.09 41.09 0 0 0-.55 6.35c-.08 5.68-.69 17.07-2 36.34 0 5.47.09 8.65.09 8.65.36 7.19.54 10.78.91 13.72.09.75.13 1.12.18 1.35a10.81 10.81 0 0 0 2.74 5.16 14.76 14.76 0 0 0 5.29 4" class="cls-2"/>
        <path d="M337.51 399.5a23.15 23.15 0 0 1 6 3.57 19.71 19.71 0 0 1 6.12 7.93 18.42 18.42 0 0 1 .61 10.51c-1.75 9.13-11.43 21.39-27.24 31-15.5 9.41-29.75 11.92-38.76 13.42a135.24 135.24 0 0 1-40.92.14c-9-1.32-20.59-3.1-34.07-9.81a104.52 104.52 0 0 1-23.5-16.75s-9.73-9.3-13.06-18.43c-.19-.52-.41-1.15-.41-1.15a107.53 107.53 0 0 1-3.15-10.84 50.84 50.84 0 0 1-1.41-8c-.11-1.43-.09-2.54-.09-3a34.89 34.89 0 0 1 .63-6.12" class="cls-2"/>
        <path d="M248.32 317.49a32.54 32.54 0 0 1-4.91.39c-3.67 0-3.19-.63-8.26-1a39.06 39.06 0 0 1-8.75-1.22 7.65 7.65 0 0 1-2.43-1.22c-.23-.17-2.49-1.9-2.19-2.92.21-.7 1.65-1.18 10-.73 6.48.35 7.89.76 13.12 1 4.25.17 7.53.07 9.48 0 2.47-.08 5.72-.2 10-.73a47.53 47.53 0 0 0 7-1.22c3.59-1 5.43-2 5.59-1.7s-2.06 2.34-5.3 4" class="cls-3"/>
        <path d="M147.54 232.88c-.58-1.57-1.76-2.54-2.79-2.43s-1.82 1.62-2.07 2.19c-.64 1.5-.47 2.89 0 5.59.13.74.25 1.39.35 2 .34 1.81.49 2.47.62 3.14.41 2.21.12 2.52.42 5.1a38.22 38.22 0 0 0 .88 4.69c.64 2.78.95 3.16 1.31 5a24.31 24.31 0 0 1 .44 5.38M229.24 179c.75 1.1 4.51 6.7 5.83 12.31a49 49 0 0 1 .81 5 17.17 17.17 0 0 1 .16 4.54 12.45 12.45 0 0 1-1 3.4m50.08 87.41a85.07 85.07 0 0 1-9.86 4.06 70 70 0 0 1-14.91 3.56c-2.6.31-4.84.37-9.24.49-7.8.2-12.34.09-14.1 0-2.2-.11-4-.25-5.27-.36" class="cls-2"/>
        <path d="M265 222.92a37.24 37.24 0 0 1-1.94-6.56c-.22-1.11-.38-2.16-.49-3.16m28.19 44.8c1.34 2.65 2.49 4.7 3.29 6.07 1.22 2.09 2.2 3.61 2.59 6a12.37 12.37 0 0 1 .16 2.27M210.08 255a15.36 15.36 0 0 1-2.19 5.59c-1.25 1.92-2.3 2.54-3.89 4.62a23.57 23.57 0 0 0-3.16 5.59M298.63 64a65.11 65.11 0 0 1 9.5 6.6 67.69 67.69 0 0 1 18.21 24.27m-119.5-46.43a141.83 141.83 0 0 1 49-.86c10 1.59 16.61 2.82 22.12 4.92a77.74 77.74 0 0 1 11.6 5.56m13.37 28.12c-4.24-3.4-10.3-7.47-21.83-13.82-14-7.69-21-11.53-29.11-14.46a128.59 128.59 0 0 0-36.54-7.31" class="cls-3"/>
        <path d="M318 102.33A100.93 100.93 0 0 0 306.25 89" class="cls-2"/>
        <path d="M223.39 60.56a84.09 84.09 0 0 0-44.49 5.08m-20.71 24.61a70.48 70.48 0 0 1 10.86-9c2-1.32 20.11-12.87 46.66-12.39 10.87.2 20.28 2.36 26.71 3.83 4.41 1 8.06 2 10.67 2.83" class="cls-3"/>
        <path d="M185.44 56.94A76.1 76.1 0 0 0 169 70.88c-3.06 3.48-9.45 11.45-13.31 16.44-2.6 3.36-3.63 4.82-5.87 6.75-2.45 2.1-5.26 3.83-4.94 4.56.24.55 1.92-.14 2.31.5.65 1.07-3.21 3.84-6.67 9.09a39 39 0 0 0-3.78 7.44 44.27 44.27 0 0 0-2.24 7.59m174.34-77.17a136.16 136.16 0 0 0-14.42-5.75 114.9 114.9 0 0 0-24.17-5.67c-10.9-1.26-19.1-.44-27.67.42A144.59 144.59 0 0 0 220.17 39a129.75 129.75 0 0 0-13.78 4.5m156.2 46.75a56.44 56.44 0 0 0-8.83-14.5 64.07 64.07 0 0 0-9.17-8.75 109.4 109.4 0 0 0-17.08-11.33 169.71 169.71 0 0 0-15.67-7.83M377.29 120c-1.78-6.51-3.91-13.67-8.12-20.37a31.53 31.53 0 0 0-5-6.28m-15.99 186.39a5.66 5.66 0 0 0 .89 1c2.87 2.43 7.23 1.07 7.52 1a9.16 9.16 0 0 0 4.17-2.83c2.94-3.6 1.28-7.65 1.53-15 .17-5.19 1.35-8.94 2.58-14.19 2.39-10.21 3.87-11.86 5.16-20 1.66-10.49.13-13.57-1.29-15.26a10.59 10.59 0 0 0-6.23-3.44 12 12 0 0 0-9.58 3m-205.81 14.09c-1.56-.73-4-1.49-6.16-.41-2.9 1.47-3.3 5.35-3.55 7.74-.52 5 1.07 8.27 3.22 14.51 2.6 7.54 3.87 11.32 4.19 14.51.91 9.16-2.53 13.87.76 19 .61.94 2.13 3.29 4.67 3.58a5.41 5.41 0 0 0 3.25-.75m-4.87-63.37c0-3.07.14-5.68.17-10.2s0-8.14-.12-11.26c-.24-8.07-.57-13.89-.63-15-.24-4.5.55-11.49 4.45-22.92m6.02 135.63q-.62-1.88-1.21-3.92c-1.4-4.87-2.4-10.69-4.3-22.35-.78-4.78-2-12.5-3-22.78-.47-4.84-1.13-11.87-1.33-21.13v-3.1m107.58 151.9h-2.66c-9.73 0-15.53-.33-23.19-2.41a72.53 72.53 0 0 1-19.2-8.59 102.5 102.5 0 0 1-13.29-9.62 123.35 123.35 0 0 1-12-11.33A124.9 124.9 0 0 1 175 332c-1.91-2.73-3.13-4.7-3.56-5.39-2.37-3.85-4.05-7.15-5.43-9.93-1.86-3.73-4.17-8.74-6.56-14.89m175.68-173.48a66.75 66.75 0 0 1 3.14 6.85c1.3 3.31 3.36 10.75 7.48 25.61 1.87 6.74 2.05 7.51 2.2 8.24a110.29 110.29 0 0 1 1.61 22.89c-.57 11.91 1.65 11.2 1.81 29.81.08 9.6-.45 16.61-1.4 29.22-1 13.41-1.66 20.1-2.62 26.09-1.56 9.77-2.71 16.93-6.11 26.08-3.53 9.49-7.66 16.19-11.67 22.68a179.39 179.39 0 0 1-12.64 17.82c-6.5 8.11-10.28 12.82-16.73 18.17-11.12 9.22-22 13.54-28.55 14.71-2.43.43-5.27.75-5.27.75-1.88.21-3.64.34-5.32.42m56.8-275.56c2.51 3.25 5.85 7.78 9.46 13.41l1.52 2.37m-161.49 61.42a9.81 9.81 0 0 1 .85-2.55 12.57 12.57 0 0 1 3.68-4.12 18.64 18.64 0 0 1 4.92-3.28c.84-.36 1.4-.51 3.38-1.35 1.45-.61 1.54-.7 2.33-1a25.56 25.56 0 0 1 4.1-1.18c2.32-.47 2.37-.13 4.87-.56a30.23 30.23 0 0 0 4.38-1.11c2.63-.85 3.23-1.4 4.53-1.81 2.14-.68 3.59-.19 8.1.81 8.93 2 10.17 1.55 13 3.4.28.18 4.56 3.07 4 4.73-.33.91-1.95 1.07-7.85 1.42-4.88.29-7.33.44-8.3.46-5.86.12-10 .29-13.61.6a88.51 88.51 0 0 0-12.33 1.94" class="cls-2"/>
        <path d="M276.71 164.83a21.78 21.78 0 0 1 10.69-2.19c2.9.19 3.15.88 7.53 1.22a43.65 43.65 0 0 0 9-.24c2.11-.28 1.76-.39 2.92-.49 5.13-.42 8.92 2 12.15 4.13 2.95 1.91 3.37 2.88 3.4 3.65a3.39 3.39 0 0 1-1.7 2.92c-1.16.66-2.14.13-5.35 0h-2.67m-42.07-3.76a4.54 4.54 0 0 0-.46 1.57 3.22 3.22 0 0 0 .73 2.67c1.17 1 3.32 0 4.37-.24a68.18 68.18 0 0 1 16.53-2.19 93.26 93.26 0 0 1 9.48.49c1.9.17 3.49.35 4.62.49m-126.06 3.88a19.37 19.37 0 0 1-2.92 2 11.08 11.08 0 0 1-1.78.89c-.6.22-1.09.32-1.54.44" class="cls-2"/>
        <path d="M206.39 83.42c-28.11 13.42-39.09 28.25-43.75 39.86-2.8 7-7.32 22.8-21.71 37.27a79.15 79.15 0 0 1-6.48 5.83" class="cls-3"/>
        <path d="M184.91 108.54a86.87 86.87 0 0 0-6.51 6.46c-8 8.8-9.49 14.14-19.29 31.84-3.26 5.9-7.35 14.66-14 24.68m104.52-88.69c-1.37.1-3.42.28-5.89.58-7.71 1-23.12 2.91-40.06 12.15l-2 1.09m106.45-.98c-4.24-2.29-8.2-3.9-11.62-5.45a86.52 86.52 0 0 0-31.39-7.37" class="cls-2"/>
        <path d="M244.26 78.35c-4.22-.68-8.29-1-10-1.09-18-1.27-38.18-2.69-55.09 8.43-7.22 4.74-11.76 10.85-20.84 23.07a179 179 0 0 0-16.08 26" class="cls-3"/>
        <path d="M267.28 83a37.47 37.47 0 0 1-7.57-1.18c-.75-.14-1.27-.26-4.29-1l-6.8-1.62m-122.99 77.3a13.84 13.84 0 0 1-1.54 1.45c-1.37 1.11-1.88 1.05-3.25 2.09a7.51 7.51 0 0 0-2 2 6.11 6.11 0 0 0-.78 4.1" class="cls-2"/>
        <path d="M153.25 128.78A48.73 48.73 0 0 1 142.56 144a77.11 77.11 0 0 1-8.43 6.8c-.93.63-2 1.34-3.49 2.34M325 77.54c3.94 4.44 7.41 8.7 10.48 12.71" class="cls-3"/>
        <path d="M223.76 235.33a24.86 24.86 0 0 0-2.62 2.44 19.05 19.05 0 0 0-4.86 7.78c-.8 2.7-.67 4.75-.49 7.78.23 3.76 1 4.71 1.46 5.18a7.33 7.33 0 0 0 3.4 1.62 8.24 8.24 0 0 0 2.11.16 7.33 7.33 0 0 0 2.75-.79m48.24-93.5c-.68.44-1.48 1-2.39 1.51-4.37 2.7-6.17 3.41-9.11 5.77a18.61 18.61 0 0 0-3.52 3.46 23 23 0 0 0-2.27 3.89c-.48 1-.45 1.13-1 2.25a23.05 23.05 0 0 0-1.78 4.07c-.37 1.29-.46 3.29-.65 7.29-.12 2.46-.19 4.14-.16 6.48 0 2.14.18 4.16.49 8.1.4 5.22.46 4.69.65 7.78s.18 4.31.49 7a23.85 23.85 0 0 0 .81 4.86c.9 2.46 2 3.12 3.56 6.32a25.9 25.9 0 0 1 1.3 3.24m-18.23 27.27c-.54 3-.93 5.6-1.22 7.66-.45 3.28-.55 4.62.31 5.46.71.69 1.77.77 3.83.92a8.39 8.39 0 0 0 3-.17 7.4 7.4 0 0 0 2.67-1.33" class="cls-2"/>
        <path d="M289.35 296.31a19.25 19.25 0 0 0 3.73-3.73 13.74 13.74 0 0 0 2.71-5.14 29.11 29.11 0 0 0 .45-4c.15-1.73.25-3.16.32-4.13M142.92 122.17c1.72-3.13 3.6-6.36 5.67-9.67 4-6.42 5.4-8.89 7.83-11.67a48.65 48.65 0 0 1 4.5-4.5M127 149.38a16.57 16.57 0 0 0 4.88-5.62c2.06-4 1.24-6.74 2.71-11.25a22.72 22.72 0 0 1 5.17-8.5M141 168a42.07 42.07 0 0 1-16.49 18.08M318 94a95.64 95.64 0 0 0-22.25-23.5 96.87 96.87 0 0 0-43.25-18M212.51 51a62.49 62.49 0 0 0-23.69 6.12" class="cls-3"/>
        <path d="M329.59 119.25q2.41 2.9 5.17 5.92c2.26 2.46 4.49 4.73 6.67 6.83" class="cls-2"/>
        <path d="M203 376.4a48.18 48.18 0 0 0 10.21 7.87m3.88 3.19c4 1.83 7.27 3.59 9.75 5 5.22 3 6.94 4.48 8.25 6.5a14.79 14.79 0 0 1 2 4.75m2.43 6.23a47.84 47.84 0 0 0 2.5 8.5c.1.25.24.57.39 1m13.18-12.17a24.38 24.38 0 0 1 1-6.33 17.55 17.55 0 0 1 3-6.33 15.74 15.74 0 0 1 5.33-4.33M194.51 382a104.87 104.87 0 0 0 6.75 21.75m3.25 5.25a58 58 0 0 0 4 10.5c1.81 3.63 3.12 5.25 5.5 9.75 1.9 3.58 3.21 6.59 4 8.5M276 456.63a75.44 75.44 0 0 0 6.75-10.5c2.88-5.42 3.92-9 7.75-19 1.16-3 2.94-7.61 5.25-13.25" class="cls-3"/>
        <path d="M353.42 233.83c0-.92.06-2.25.17-3.83a27.94 27.94 0 0 1 .83-6.5 10.81 10.81 0 0 1 3.92-5.83c.42-.3 4.05-2.77 6.33-1.42 2.61 1.55 2 7.27 1.08 10.16-.6 1.91-1.5 4-1.5 4a37 37 0 0 0-1.49 3.68 21.87 21.87 0 0 0-.68 2.64A19.2 19.2 0 0 0 362 242a43.58 43.58 0 0 1-.12 6.88" class="cls-2"/>
        <path d="M361.17 217.67a6.33 6.33 0 0 1 2.25 3.83c.32 2.41-1.32 3.81-1.83 7.58a15.39 15.39 0 0 0-.08 3.33m-6.09-.41a4.32 4.32 0 0 1 2.58.75 4.86 4.86 0 0 1 1.79 3.38c.3 2-.41 2.83-1.46 6.17-1.4 4.44-2.09 6.65-2 9.38.07 1.41.31 2.39-.33 3.42-1 1.54-3.42 2.38-4.29 1.62-1.24-1.08 1.75-4.49 1.38-9.87a14.54 14.54 0 0 0-1.46-5.33m-205.21-8.02a2 2 0 0 0-1.75.21c-.86.8 0 2.93.42 4.17a30.53 30.53 0 0 1 1.58 9.67m2.75 9.53a28.52 28.52 0 0 0 1.25 12.42m48.84-171.37a30.64 30.64 0 0 1-8.87 5.75c-3.09 1.29-5.9 1.82-10 4.25a34.91 34.91 0 0 0-3.5 2.38" class="cls-2"/>
        <path d="M219.38 42.83c1.2-.28 2.62-.57 4.2-.84a68.74 68.74 0 0 1 18.63-.5M127.88 199.41a71.71 71.71 0 0 0 17.75-23m-14.57 38.03a43.48 43.48 0 0 0 13.2-21.32m-9.38 33.26q2.32-4.44 4.63-9 2.17-4.28 4.25-8.5m213.99-69.47a111 111 0 0 1 9 19.25l.38 1.08M345.76 137A70.48 70.48 0 0 1 358 162m-5 3.75a88.16 88.16 0 0 1 9.25 36.5" class="cls-3"/>
        <path d="M230.76 257.13c-1.47 1.18-2.82 1.6-3.37 1.13s-.05-2.12 0-2.25c1-2.53 4.58-4.54 7-3.62 1.28.48 1.32 1.44 4 3.5a23.26 23.26 0 0 0 2 1.38m3.12 2.23a8.33 8.33 0 0 0 4.75 0 10.4 10.4 0 0 0 3.75-2.37c2.11-1.8 2.17-2.64 3.75-3.75a9.69 9.69 0 0 1 4.38-1.62m1.74.37a4.43 4.43 0 0 1 3.38 1.25c.23.25 1 1.1.75 1.88-.35 1.08-2.42 1.12-2.62 1.13a5 5 0 0 1-3.12-1.12m7.24 1.98a6.05 6.05 0 0 0 3.25.38 6.87 6.87 0 0 0 4.13-2.75 11.1 11.1 0 0 0 2.25-5.5c.29-1.68 1-6-1.25-9.75-1-1.69-2.52-2.83-5.5-5.12-1.69-1.3-2.51-1.73-4.12-3.12-.86-.74-1.6-1.47-2.22-2.13m10.52 53.55c1.35.26 2.48.44 3.31.56 1.18.17 2.09.28 3.53.44l2.85.31a15.72 15.72 0 0 1 3.13.75c1.22.41 1.8.69 2 1.25a2 2 0 0 1-.37 1.63m-82.93 1.83a9.79 9.79 0 0 1 2.75-1.08 28.13 28.13 0 0 1 3-.33 15.4 15.4 0 0 0 3.54-1c.41-.15 3.62-1 10-2.83 9.46-2.7 9.45-2.18 11-3.08a6.77 6.77 0 0 1 3.5-1.08 9.74 9.74 0 0 1 2.5.5 16.41 16.41 0 0 0 5.21.63 11.33 11.33 0 0 0 4.25-1.17 13.62 13.62 0 0 1 2.33-1.25 5.73 5.73 0 0 1 3.75.33" class="cls-2"/>
        <path d="M295 337c.65-1.42 1.62-3.58 2.75-6.25 1.41-3.31 2.25-5.51 2.71-6.64M208.51 338a51.31 51.31 0 0 1-11-11.75" class="cls-3"/>
        <path d="M336.76 397.5a111.56 111.56 0 0 1 19.75 8.75c8.2 4.63 8.94 6.43 20 13.75 2.63 1.74 10.5 6.33 26.25 15.5 4 2.32 7 4.06 9.58 5.55" class="cls-2"/>
        <path d="M326 439l3-37" class="cls-3"/>
        <path d="M181.63 199.38c.8-.59 2-1.42 3.38-2.37a37.19 37.19 0 0 1 7.13-4.12 22.91 22.91 0 0 1 6.88-1.5 26.37 26.37 0 0 1 10.25 1.13 30.4 30.4 0 0 1 7.13 3.75 3.46 3.46 0 0 1 1.81 2.19 3.74 3.74 0 0 1-.31 1.69 7.44 7.44 0 0 1-.95 1.86 25.55 25.55 0 0 1-5.55 2.14 31.59 31.59 0 0 1-10.37.63 28.07 28.07 0 0 1-7.37-1 38.84 38.84 0 0 0-5.75-1.62 27.15 27.15 0 0 0-3.25-.37" class="cls-2"/>
        <path d="M195.67 192.75a7.67 7.67 0 0 0-1.58 2.17 7 7 0 0 0-.75 2.75 8.63 8.63 0 0 0 .5 3 19 19 0 0 0 1 2.75m14.92-9.92a6.73 6.73 0 0 1 1.58 2.42 5.86 5.86 0 0 1 .42 2.75 6.76 6.76 0 0 1-1.42 3.25 10.58 10.58 0 0 1-1.5 1.75M177 198.5c2.69-1.45 4.82-2.71 6.25-3.58 4.56-2.78 5.67-3.84 8.58-4.83a28.8 28.8 0 0 1 5.83-1.25 40.06 40.06 0 0 1 6.92-.33m-6.82 19.57a36.74 36.74 0 0 0 5.92.17 25.93 25.93 0 0 0 6.75-1c3.14-1 3.57-1.91 6.67-2.75.41-.11 1.85-.49 3.92-1.08l1.42-.42" class="cls-2"/>
        <path d="M201.59 216a33.39 33.39 0 0 0 6.67-.83 16.46 16.46 0 0 0 5.17-1.92 13.83 13.83 0 0 0 1.92-1.42" class="cls-3"/>
        <path d="M312.51 197a29.83 29.83 0 0 1-4.33-2.5c-2-1.38-2.55-2.13-4-3.09a17.06 17.06 0 0 0-6.24-2.35c-4-.85-7.06-.36-10.07 0a28.9 28.9 0 0 0-8.67 2.75s-3.33 1.66-3.74 3.59a2.59 2.59 0 0 0 .12 1.68c.19.4.35.37.71.9a5.16 5.16 0 0 1 .75 1.83c.19.85 0 1 .25 1.33.34.5 1 .56 1.75.67 1 .15 2 .52 3.09.64 4.14.47 4.69 1 7.91 1.16a27.41 27.41 0 0 0 7.17-.46c3.53-.72 4.34-1.71 8.33-2.42a29.83 29.83 0 0 1 3.67-.42" class="cls-2"/>
        <path d="M290.13 186.38a18.16 18.16 0 0 1 7.63-.12c2.89.59 4.89 1.78 8 3.63 3.32 2 4.32 3.12 8.38 5.38 1.42.79 2.6 1.38 3.38 1.75M273 202.25c2.29.78 4.32 1.34 6 1.75 1.92.47 1 .17 7.25 1.38a18.57 18.57 0 0 0 5.63.5 15.78 15.78 0 0 0 1.75-.25" class="cls-2"/>
        <path d="M276 208a29 29 0 0 0 12.13 5.38" class="cls-3"/>
        <path d="M213.51 290.33a35.65 35.65 0 0 0 5.42.75c2.51.15 4.75 0 10.33-.83 4.55-.69 5.84-1 13.13-2.25a58.51 58.51 0 0 1 7.25-1 51.64 51.64 0 0 1 9 .38c4.26.47 5.06.94 9.25 1.38a46.15 46.15 0 0 0 6.63.38c.85 0 2.67-.22 4.25-.37l2.33-.25m-75.1 2.86a6.16 6.16 0 0 0 .38 1 6.47 6.47 0 0 0 1.13 1.63 9.41 9.41 0 0 0 2.87 2.12 14.42 14.42 0 0 0 4.13 1.38" class="cls-2"/>
        <path d="M200.09 300.63a14.23 14.23 0 0 1-4.67-7 13.34 13.34 0 0 1-.5-3.5" class="cls-3"/>
        <path d="M284.84 190.67a9.12 9.12 0 0 0-1.42 2.58 9.41 9.41 0 0 0-.5 3.58 6.61 6.61 0 0 0 1.33 4.5 4.58 4.58 0 0 0 .75.67m14.26-12a7.69 7.69 0 0 1 1.33 1.79 8.51 8.51 0 0 1 .92 4.33 9 9 0 0 1-1 4.33 8.28 8.28 0 0 1-1 1.42" class="cls-2"/>
        <path d="M174.76 417.83a89.56 89.56 0 0 0 1.83-16.33c0-2.06 0-4-.08-5.91" class="cls-3"/>
        <path d="M132.84 122.17c-.34.67-.87 1.72-1.5 3-2.35 4.8-2.25 5.1-3.58 7.71-2.05 4-3.74 6.12-3.12 6.75.46.47 1.67-.45 2.13 0 .79.79-1.94 4.45-3.87 8a39.65 39.65 0 0 0-3.87 10.5M187.51 55c2.77-1.53 5-2.83 6.58-3.75 2.23-1.31 3.57-2.14 8.08-4.83l3.08-1.83" class="cls-2"/>
        <path d="M250.76 39.75a80.79 80.79 0 0 1 26.38 3.38c1.81.55 3.53 1.14 5.16 1.76m73.46 48.49a80.43 80.43 0 0 0-16.87-22.62c-7.29-6.82-14.05-10.55-20.62-14.12a134.71 134.71 0 0 0-28.62-11.5M343 93a75 75 0 0 1 22.38 34.25M338 119.38a125.76 125.76 0 0 1 10.13 9.13c1.94 1.94 3.72 3.87 5.38 5.75m1.49-9.13a84.39 84.39 0 0 1 12.13 18.63m1.63 20.62a32.27 32.27 0 0 1 4.25 7.28m-29.13-82.53a79.09 79.09 0 0 0-40.12-33.5m17.75 17.12a105.06 105.06 0 0 0-23.87-16.37q-2.64-1.3-5.13-2.38m39.41 41.83a85.09 85.09 0 0 1 14.33 16.33 84.23 84.23 0 0 1 4.67 7.83M325.42 99a54.48 54.48 0 0 1 11.5 16.17M231.76 61.75c6.8 1.57 12.69 3.32 17.5 4.92a184 184 0 0 1 18 7c4.32 2 7.93 3.84 10.67 5.33m-146.55 89.74a18.68 18.68 0 0 1-6.75 7 17.16 17.16 0 0 1-2 1" class="cls-3"/>
        <path d="M118.57 168.5a22 22 0 0 0 .88 5.25c.53 1.78 1.13 2.91.75 4.5-.21.86-.67 1.71-.44 1.88s1.09-.91 1.56-.69.15 1.13.31 2.75a11.8 11.8 0 0 0 .31 1.75m.5 1.87a25.86 25.86 0 0 1 2.31 7.25 24.59 24.59 0 0 1 .44 5.94c-.15 2.3-.65 4.26.06 4.63.49.25 1-.56 1.56-.37 1.19.38.46 4.08 1.5 8.63a21.45 21.45 0 0 0 1.13 3.5m.38 1.17c.22.71.59 1.91 1.13 3.38 1.44 4 2 4.3 2.31 6.31s.13 3.69.69 3.81 1.08-1.1 1.44-.94-.1 1.29.5 2.63a3.74 3.74 0 0 0 .31.56" class="cls-2"/>
        <path d="M139.88 152.63a91.28 91.28 0 0 0-17.5 18" class="cls-3"/>
        <path d="M377.63 122.88a5.7 5.7 0 0 0 1.13 3c1.35 1.72 3.45 2 3.38 2.63s-2.09.33-2.87 1.5c-.68 1 0 2.4 1 5 1.64 4.45.84 3.95 2 6.5.51 1.13.6 1.08 4.25 7.38 0 0 1.5 2.59 1.25 2.75s-.9-1.26-2.5-1.75a1.91 1.91 0 0 0-1.37-.12c-1 .55 0 3.42 1.13 10 .54 3.13.85 5.56 2 7.75a30.11 30.11 0 0 0 1.5 2.62c1 1.53 1.82 2.19 1.63 2.5-.32.53-2.65-1.2-4-.37-1.2.74-1 3.09-.62 6.75.27 2.87.42 4.36 1.38 6.13.8 1.47 1.45 1.83 1.38 2.75-.14 1.65-2.4 2-4 3.75-1.91 2.13-1.25 4.55-1.62 8.38-.22 2.26-1.52 5.51-4.12 12-1.28 3.2-3.08 7.4-5.5 12.25" class="cls-2"/>
        <path d="M371.42 138.17a16.77 16.77 0 0 0 1.83 4.33 17.24 17.24 0 0 0 6.17 6m-8.66 1a26 26 0 0 0 11.17 19m-5.17 4.33a31 31 0 0 0 5.83 14.83m-12.17-10.83a27.32 27.32 0 0 1 4.5 13.17c.15 2.94-.2 7.24 1.83 12.67.38 1 .75 1.81 1 2.33m-14.66-30.17a33.92 33.92 0 0 1 4.33 16.33c0 4-.93 8.85 1.67 14.17a18.64 18.64 0 0 0 2.5 3.83" class="cls-3"/>
        <path d="M290.93 194.45a2.12 2.12 0 0 0-1 2.5 2.18 2.18 0 0 0 2.25 1.25 2.45 2.45 0 0 0 2.25-2.5 2 2 0 0 0-.83-1.25m-92.55 2.17a2.12 2.12 0 0 0-1 2.5 2.18 2.18 0 0 0 2.25 1.25 2.45 2.45 0 0 0 2.25-2.5 2 2 0 0 0-.83-1.25" class="cls-2"/>
      </g>
      <path d="M359.38 99.13A100.69 100.69 0 0 1 375 134.88" class="cls-3"/>
    </g>
  </g>
</svg>