<svg xmlns="http://www.w3.org/2000/svg" viewBox="0 0 501 501">
  <defs>
    <style>
      .cls-1, .cls-2, .cls-3 { fill: none; stroke: #000; stroke-miterlimit: 10; } .cls-2 { stroke-width: 0.5px; } .cls-3 { stroke-width: 0.25px; }
    </style>
  </defs>
  <g id="Layer_2" data-name="Layer 2">
    <g id="PP">
      <circle id="border" cx="250.5" cy="250.5" r="250" class="cls-1"/>
      <g id="line">
        <path d="M187.54 202.5c1.79-.9 3.4-1.76 4.81-2.56a51.13 51.13 0 0 1 6.06-3.31 18.91 18.91 0 0 1 5.19-1.44 15.75 15.75 0 0 1 3.94.06c3 .46 2.84 1.42 7.56 3.19 1.52.57 2.87 1 2.94 1.75 0 .39-.31.82-1 1.69a8.22 8.22 0 0 1-1.59 1.66 9.9 9.9 0 0 1-2.87 1.19c-2.17.75-1.87.72-2.78 1a24.56 24.56 0 0 1-3.78.81 30.57 30.57 0 0 1-6.34.25 21.59 21.59 0 0 1-6.59-1.12 11 11 0 0 0-3.16-.84c-.42 0-.77-.06-1-.06" class="cls-2"/>
        <path d="M209.67 196.56a9.24 9.24 0 0 1 .88 1.41 4.32 4.32 0 0 1-1 6.19 10 10 0 0 1-1.47 1.31m-10.26-7.78a5.85 5.85 0 0 0-.56 3.41 6.08 6.08 0 0 0 2.06 3.63 6.91 6.91 0 0 0 2.47 1.44m1.16-7.58a2.79 2.79 0 0 0-.62 2.5 2.45 2.45 0 0 0 2.53 1.75 2.39 2.39 0 0 0 1.66-3.37 2.15 2.15 0 0 0-2-1" class="cls-2"/>
        <path d="M183.61 205.75c-.22-.13-.79-.51-.81-1.06a1.53 1.53 0 0 1 .69-1.12 33.43 33.43 0 0 1 5.81-3.87c3.64-1.79 2.77-2.1 5.94-3.5a36.17 36.17 0 0 1 6-2c.59-.14 1.08-.24 1.44-.31m-12.45 16.24c1.4.12 3.43.25 5.88.25a36.16 36.16 0 0 0 9.69-.81 25.27 25.27 0 0 0 7.19-3.12" class="cls-3"/>
        <path d="M226.57 187.18l1.56.13c2.21.19 4.43.37 7.41.5s5.11.23 8.06.13a83.51 83.51 0 0 0 9.19-.87c4.09-.56 6.57-1.09 9.26-1.59 7-1.31 12.45-1.87 18.21-2.47 4-.41 9-.86 15-1.16 2 0 18-.16 23.52.32l7.6.7c4 .37.11 0 6 .62 1 .1 2 .28 2.94.36a19.14 19.14 0 0 1 2 .33 3.4 3.4 0 0 1 1 .34 3.26 3.26 0 0 1 .69.5 72.13 72.13 0 0 1 7 6.28c.3.31.69.73 1.14 1.24m-200.62 9.4c0-.56-.08-1.31-.12-2.27a14.1 14.1 0 0 1 0-2.4c0-.11.06-.48.13-.81.25-1.17.79-1.62 1.9-3.33.58-.9 1.27-1.73 1.79-2.67a1.9 1.9 0 0 1 .79-.81 1.78 1.78 0 0 1 .81-.17c.76 0 1.51-.15 2.27-.1a23.13 23.13 0 0 0 4.46-.52c4.4-.71 6.48-1.55 11.44-2.4 2.67-.46 4.92-.71 6.34-.86 2.1-.23 4-.39 5.69-.5 1.84-.14 4.65-.3 8.09-.3 2.17 0 4 .06 10.09.39 5.49.3 8.23.44 10.26.59 4.14.3 5.83.49 10.83.95m88.01 44.75l-1.43.23a124.87 124.87 0 0 1-14.71 1.42c-2.71.09-5.29.05-6.1 0-2.32 0-4.08-.06-6.42-.27a26.18 26.18 0 0 1-5.92-.94 17.28 17.28 0 0 1-4.59-2.11c-2.59-1.73-3.92-3.8-5.94-7a46.88 46.88 0 0 1-3.44-6.6M347.61 198c.12.92.32 1.9-.19 2.31a1.17 1.17 0 0 1-.91.16c-2.12-.31-5-2.27-7.91-3.5a6.48 6.48 0 0 0-3.25-.59 4.17 4.17 0 0 0-1.94.66 4.08 4.08 0 0 0-1.37 1.76 14.76 14.76 0 0 0-1.33 4.92c-.05 1.1-.51 3.86-1.42 9.38-.76 4.63-1.17 7-2.54 9.33a17.72 17.72 0 0 1-4 4.63c-1.18 1-2.81 2-6.88 3.09m-55.48-14.68c-1.67-4-2.88-7-3.69-9s-2.09-4.05-3-6.16a6.06 6.06 0 0 0-2.44-3.37 5.53 5.53 0 0 0-2.34-.53 53.73 53.73 0 0 0-5.62-.19c-3.83 0-4.36-.27-5.47.31a6.78 6.78 0 0 0-2.31 2.22c-.87 1.16-1.17 2-2.5 5.41l-.31.79m-50.54 30.99c2.85.35 5.79.48 9.19.62a98 98 0 0 0 11.06-.12 61.63 61.63 0 0 0 10.06-1.44c4.23-1 6.39-1.54 8.44-3.37 1.1-1 2-2.64 3.81-5.94a65.58 65.58 0 0 0 3.73-8c.56-1.48 1-2.89 1.79-5.17.57-1.7 1-3.12 1.33-4.12m-81.97-5.63a11.56 11.56 0 0 1 1.43-.27 6.89 6.89 0 0 1 4.13.38 5.43 5.43 0 0 1 2.25 2.38c2.31 4.26 2.1 9.88 3.81 15.81.89 3.09 1.85 6.24 4.63 8.94 2.28 2.21 4.64 3 8.06 4.13 1.11.36 2.19.67 3.25.92m49.5 4.27a5.24 5.24 0 0 0-2.42 1.5 6 6 0 0 0-1 1.75c-.89 2-1.51 2.75-2 3.75-.87 1.79-2.34 6.65.08 10.42a8.21 8.21 0 0 0 5.42 3.67 6.51 6.51 0 0 0 1.92 0m2.19-.48c.38-.16.89-.41.88-.69 0-.55-2.16-.4-2.56-1.37-.32-.78.54-2.08 1.63-2.56a3.15 3.15 0 0 1 2.19 0 4.68 4.68 0 0 1 1.87 1.16 10.65 10.65 0 0 1 1.31 1.5 9.76 9.76 0 0 0 3.13 2.38 10.12 10.12 0 0 0 3.56 1.19 12.56 12.56 0 0 0 5.19-.69 26 26 0 0 0 3.44-1.19m1.61-.23c1.48-.48 1.9-.79 1.88-1-.05-.44-2-.34-2.25-1.12-.12-.42.34-.89.5-1.06 2-2 6.24-.82 7.38-.5.64.18 2.3.66 2.31 1.31s-1.21.78-1.5 1.81a2.09 2.09 0 0 0 .19 1.44" class="cls-2"/>
        <path d="M262.79 260.88a5.69 5.69 0 0 0 3.19.69 6.52 6.52 0 0 0 4.5-2.94 9.7 9.7 0 0 0 1.63-6.19c0-2.43-.88-4.31-2.56-8.06-1.87-4.16-3.17-5.26-3.56-5.56a13.55 13.55 0 0 1-3.25-3.5m-7.24.68a53.61 53.61 0 0 1-3.67-10.5c-.37-1.56-1.25-5.64-1.92-23.08-.08-2-.13-3.7-.17-4.83M262.61 174c2.56-.7 3.73-.89 3.73-.89 12.56-2 11.15-3.08 17.67-3.5 4.09-.26 8.95.38 18.67 1.67 8.15 1.08 10.19 1.79 12.17 3 3.42 2.1 4.09 3.57 7.33 4.83.58.23 2.34.87 2.42 1.92a1.36 1.36 0 0 1-.33.92m-74.35 2.47a8.78 8.78 0 0 1 1.83-5.92 7 7 0 0 1 2.79-1.94M222 173.8l-.62-.46c-2.52-1.86-6-3.4-13.5-4a68.07 68.07 0 0 0-16.33.67 55.27 55.27 0 0 0-12.67 3.33c-2.68 1.08-5.34 2.66-10.67 5.83-4.87 2.9-7.12 4.55-6.83 6a1.94 1.94 0 0 0 .92 1.17m22.24-2.59c.75-.17 1.88-.42 3.25-.75 6.08-1.45 8.31-2.23 10.5-2.75 5.21-1.24 5.53.12 16.13-.5 9.53-.55 10.13-1.87 10.25-2.25a1.82 1.82 0 0 0-.2-1.34m34.82.2a1.62 1.62 0 0 0-.54 1.3c.13.87 1.21 1.65 6 3a85.11 85.11 0 0 0 8.42 1.92M301.48 200a38.28 38.28 0 0 0-3.44-2.25 24.3 24.3 0 0 0-6.19-2.81 19.5 19.5 0 0 0-5.19-.69 19 19 0 0 0-7 1.38c-3.11 1.26-2.3 1.92-5.44 3.31-.39.17-1.36.59-1.37 1.19 0 .33.28.57 1.06 1.25 1.63 1.42 1.42 1.32 1.69 1.5.93.62 1.74.67 3.69.88 1.36.15 2.7.37 4.06.5 6.64.63 6.74.67 7.63.63a14.05 14.05 0 0 0 5.06-.81 17.3 17.3 0 0 1 3.88-1.25l.75-.12" class="cls-2"/>
        <path d="M307.17 203.38a1.43 1.43 0 0 0 .63-1.12c0-.82-1.25-1.21-3.06-2.37-1.2-.77-1.42-1.07-2.37-1.75a30 30 0 0 0-10.37-4.45 30.72 30.72 0 0 0-7.31-.75m-6.4 12.19c1.36.44 3.26 1 5.56 1.56a37.36 37.36 0 0 0 5.94 1.13 32.93 32.93 0 0 0 7-.19c1.58-.18 2.88-.43 3.81-.62" class="cls-3"/>
        <path d="M221.35 227.24c.33-.48.59-.93.82-1.33a71.4 71.4 0 0 0 6-15 93.14 93.14 0 0 0 2.5-12.67 8 8 0 0 0-.75-5.42 7.73 7.73 0 0 0-2.67-2.5 8.35 8.35 0 0 0-2.92-1 132 132 0 0 0-15.42-1.42c-.13 0 .51 0-9.58-.5-11.22-.57-12.49-.61-14.67-.58a91.5 91.5 0 0 0-11.08.75 79.25 79.25 0 0 0-8.25 1.58m-2.85 2.85a20.11 20.11 0 0 0-1.47 4.22 20.89 20.89 0 0 0-.5 4.5c-.07 4.06.49 7.54 1.58 13 2 10.12 2.82 11.66 4.08 13.08a18.27 18.27 0 0 0 4.75 3.67 17 17 0 0 0 4.83 1.58 82.93 82.93 0 0 0 13.75 1.25c10.68.27 10.57.29 11.58.25 2.37-.09 5.72-.62 12.42-1.67a11.59 11.59 0 0 0 4.58-1.5m19.59-31.13c.1 1.3.14 2.67.13 4.13 0 1.19-.08 2.35-.17 3.46M149 209.17a5.72 5.72 0 0 0-1.75-3.58 5.43 5.43 0 0 0-5.5-1.17c-2.28.92-3 3.57-3.58 6.08a20.26 20.26 0 0 0-.33 8c.75 5.14 2.24 8.64 4.42 13.92 2 5 4 10 6 14.92 3.41 8.37 3.74 9 3.92 10.92a27.37 27.37 0 0 0 1.58 8.38 22.68 22.68 0 0 0 1.55 3.24" class="cls-2"/>
        <path d="M144.08 229a33.67 33.67 0 0 1-2.67-8.5c-.28-1.65-1.18-6.94.33-7.58.74-.32 1.8.6 2.17.92a7.07 7.07 0 0 1 2.08 4.75c.53 4.92-.72 7.32-.83 11.33a22.11 22.11 0 0 0 1.5 8.5m10.51-153.17c-3.36 5.37-6 9.76-7.75 12.75a59 59 0 0 0-2.87 6.38c-.52 1.26-.7 1.86-.5 2 .37.26 1.74-1.44 2.08-1.22s-1.19 3.36-2.08 5.22a51.8 51.8 0 0 0-3.62 10.38m-.51 2.24a43.13 43.13 0 0 0-1.75 6.63c-.62 3.42-1.1 5.16-.62 5.38s1.59-1.66 2-1.46c.67.3-.78 4.8-1.42 7a65.7 65.7 0 0 0-2.5 14.75m.54 1.7a33.7 33.7 0 0 1 2.25 6.75c1.12 5.13.21 6.78.88 13.13.2 1.88.84 5 2.13 11.13.62 3 1.19 5.6 1.66 7.68" class="cls-2"/>
        <path d="M144.42 130.88a114.43 114.43 0 0 0 10.38-8.62c2.92-2.74 5.5-5.44 7.75-8" class="cls-3"/>
        <path d="M164.51 112.06a32.44 32.44 0 0 0 7.19-11.62m-6.41 15.31a24.12 24.12 0 0 0-3.62 7c-1.11 3.46-.81 5.31-1.75 9a33.76 33.76 0 0 1-3.5 8.25c-1.56 3-2.65 6.61-3.62 24.75-.33 6.11-.63 13.62-.75 22.25" class="cls-2"/>
        <path d="M141.54 154.38a83.5 83.5 0 0 1 16.13-26.12m-12 56.24a73.49 73.49 0 0 1 1.5-25 72.59 72.59 0 0 1 4.25-12.62m-5.63-27.25a91.77 91.77 0 0 0 22.25-22" class="cls-3"/>
        <path d="M194.92 42c-3.42-1.91-5.86-2-7.5-1.62-1 .22-2 .64-4 1a24.78 24.78 0 0 1-4.12.38m-6.8 5.74c.58-.9 2.29-3.33 4.5-3.83a14.73 14.73 0 0 1 1.75-.25 16 16 0 0 1 2.75 0" class="cls-2"/>
        <path d="M184.42 43.17c2 .06 5 .19 8.5.5a117.17 117.17 0 0 1 20.5 3.5c4.15 1.13 9.57 2.9 13.58 5.92a34.18 34.18 0 0 1 3.33 2.91 29.78 29.78 0 0 1 4.17 5.33m-6.17-10.16a49.05 49.05 0 0 1 8.42 2.75c4.48 1.93 7.9 3.4 10.92 6.67 3.77 4.09 5 8.88 6.25 14a48.8 48.8 0 0 1 1.17 6.5" class="cls-3"/>
        <path d="M181.92 47.88a17.57 17.57 0 0 0-8.75.25c-3 .88-4.95 2.39-7.37 4.25-2.19 1.68-3.63 3.2-3.5 3.38s1.91-1.39 4.88-2.12a13.05 13.05 0 0 1 2.63-.37m-11.02 30.11c1-1.49 1.75-2.87 1.38-3.25-.87-.88-7.5 4.18-7.62 4a20.82 20.82 0 0 0 5.12-5.13 31 31 0 0 0 1.75-3.25 37.67 37.67 0 0 0 1.5-3.62m-2-3.71c-3.74 3.65-4.61 4.71-4.5 4.83s1.79-1.41 4.67-2.08a11.5 11.5 0 0 1 1.5-.25m-1.26-4.5c.54-1 1.35-2.33 2.42-3.92a25.09 25.09 0 0 1 3.25-4.25 15.7 15.7 0 0 1 5.17-3.33m27.25-15.67a63 63 0 0 1 8.75-2.5 94.77 94.77 0 0 1 9.5-1.25c17.05-1.78 17.35-1.78 18.75-2.25 2.51-.84 4.23-1.72 7-1.5s4.51 1.49 7.25 2.75a31.65 31.65 0 0 0 11 2.75m3-.25a18.43 18.43 0 0 1 9.5 3.25m.75-1.75a45.16 45.16 0 0 1 6.25 2.5c3.66 1.79 4.57 2.85 7.75 4.75 7 4.16 7.83 2.19 12.5 5.75 1.88 1.44 2.94 2.67 7.25 6 1.26 1 2.31 1.75 3 2.25m-.5 1.5a24.45 24.45 0 0 1 4.75.38 18.78 18.78 0 0 1 7.38 2.63c1.31.86 2.75 2.57 5.63 6 1.92 2.29 3.88 4.62 3.63 4.88s-3-2.49-3.25-2.25 1.49 2.33 2.63 3.75c2.79 3.47 3.89 4.43 5.63 6.75a41.81 41.81 0 0 1 3 4.63m1.35 2.48c3.72 3.93 5.09 6.74 5.63 8.63.49 1.72 1.78 3.11 2.75 4.63.23.35 1 1.53.75 1.75s-1.21-.92-2-.62-.88 2.2-.87 2.38a6.26 6.26 0 0 0 .75 2.67 27.73 27.73 0 0 1 1.42 4.17m.57 2.39c1.42 2.78 2.7 5 3.63 6.5.69 1.14 1.83 3 1.5 3.25s-1.6-1.14-2.12-.83c-.69.4.39 3.34 1.25 5.75.79 2.21 1.89 5.36 3.17 9.25m.9 2.41a54.75 54.75 0 0 1 .92 7.75 44.78 44.78 0 0 1-.5 8.92c-.24 1.17-.57 2.31-.57 2.31-.13.46-.24.8-.26.86a100.09 100.09 0 0 0-2.33 9.75c-1 5.41-2.33 10.19-4.08 16.58-.85 3.1-1.6 5.61-2.08 7.17m-9.93-15a39.94 39.94 0 0 1-3.33-15.5c0-4.57.85-5.2.5-10.17-.07-.94-.23-2.85-2.17-13-.41-2.17-.76-4-1-5.17m14.08 65.5a6.28 6.28 0 0 1 3.58-2.08 6.59 6.59 0 0 1 4.83 1.25c3.12 2.11 3.81 6 4.17 8.25.91 5.68-.68 10.45-2.75 16.42-1.54 4.45-1.91 4.1-3.17 8.17-1.95 6.31-.92 6.72-2.67 11.75-1.8 5.19-3.29 5.89-4.67 11-.5 1.84-1.07 3.66-1.58 5.5a26.11 26.11 0 0 1-1.42 4.17c-1.25 2.78-2.19 3.33-2.5 3.5a3.93 3.93 0 0 1-1.4.43" class="cls-2"/>
        <path d="M352.61 226.69a20.15 20.15 0 0 0 2.25-5.06 22.12 22.12 0 0 0 .75-6.56c0-3.47-.51-4.33-.94-4.81-.06-.06-1.34-1.48-2.62-1.12s-1.57 1.81-1.75 2.44c-.75 2.59.47 3.77 1 7.94.3 2.39-.05 2.37.25 6.13.19 2.31.47 4.2.69 5.44M297.08 89.17a13.94 13.94 0 0 0 4.33-5.67 13.61 13.61 0 0 0 .74-2.42m.02 5.17a8.31 8.31 0 0 1 2.75.25c3.83 1 4.55 4.33 9.17 9.67 3.87 4.48 5.21 4.3 6 7 .72 2.49-.41 2.68 0 8a54.91 54.91 0 0 0 1.33 7.83c.68 3.19.94 3.66 1.17 4 1.57 2.38 3.8 2.11 6 4 1.19 1 2.6 2.87 3.17 6.5" class="cls-2"/>
        <path d="M302.42 77.38a29.62 29.62 0 0 0-1.42-8.13c-.7-2.18-2.29-6.28-7.37-12.12a66.11 66.11 0 0 0-18-14.37m-24.09-3.88A44.89 44.89 0 0 1 263 46.75c4.06 3.84 6.21 7.48 10.5 14.75 4.72 8 5.45 11.3 5.63 14a22.52 22.52 0 0 1-.62 6.88m-67.34-43.63a101.41 101.41 0 0 1 17 2.38 33.72 33.72 0 0 1 9.25 3.38 31 31 0 0 1 4.13 2.75" class="cls-3"/>
        <path d="M231.67 36.13a36.19 36.19 0 0 1 11.75 3.5c4 2 6.58 4.22 9.88 7.13a83.12 83.12 0 0 1 10.88 11.63M242 51.5a38.12 38.12 0 0 1 16 10.25c2.42 2.64 5.79 6.43 7 12.38a22.28 22.28 0 0 1 .25 7.25m.04-39.5a56.09 56.09 0 0 1 13.13 12.25 58.6 58.6 0 0 1 7 11.88c2.67 5.67 3.16 8.58 3.25 10.88a21.91 21.91 0 0 1-.37 5m-1.88-25.51a28.86 28.86 0 0 1 6.5 10.75 33.1 33.1 0 0 1 1.5 8.5 38.45 38.45 0 0 1-.12 6.25m-66.01 1.37a16.66 16.66 0 0 0-1.5-10c-2.48-4.87-6.81-6.94-9.12-8-4.19-1.92-5.89-1.25-13.87-2.25a113.51 113.51 0 0 1-23.12-5.5c-2.93-1-5.3-2-6.87-2.75" class="cls-3"/>
        <path d="M201.17 49c9.06 3.33 13.63 6.2 16.13 8.25.71.58 4 3.39 8.88 7.13 1.52 1.17 1.33 1 1.63 1.25a23.05 23.05 0 0 1 7.54 11 20.77 20.77 0 0 1 .83 5.09m7.74-1.97a49.63 49.63 0 0 0-1.5-9.25 26.89 26.89 0 0 0-3.87-9.37 22.5 22.5 0 0 0-2.5-3M171.54 89a26.69 26.69 0 0 0-4.79 3.31 33.32 33.32 0 0 0-4.33 4.69 68.74 68.74 0 0 1-11.83 11.17m73.16-23.67a26 26 0 0 0-13.67-7c-4.37-.68-8 .27-15.17 2.17-4.36 1.15-9.13 3.16-18.67 7.17m-21.99 6.49c4.58-4.09 8.68-7.42 12-10 4-3.08 6.49-4.83 10.17-6a25.47 25.47 0 0 1 6.5-1.17m39.66-.33a42.73 42.73 0 0 0-8.33-5c-5.47-2.48-8.23-2.24-24.71-4.05-10.12-1.11-13.29-1.65-19.12-1.12a62.27 62.27 0 0 0-9 1.5" class="cls-3"/>
        <path d="M165.42 75.83a31.57 31.57 0 0 1 9.17-4.33 32.79 32.79 0 0 1 18.67.33m-11.51-20a64.65 64.65 0 0 0 12.83 2.67c4.62.47 8.69.35 13.67 2.67a25.19 25.19 0 0 1 4 2.33" class="cls-3"/>
        <path d="M235.85 103a30.44 30.44 0 0 0 7.91-.32 43.14 43.14 0 0 0 10.67-3.33m5.32-2.68a84.11 84.11 0 0 0 11-.83 89.71 89.71 0 0 0 14.33-3.33c3.46-1.1 6.33-2.24 8.5-3.17m-62.5 15.33a97.43 97.43 0 0 1-16.5 4.33 67.13 67.13 0 0 1-16.67 1c-4.31-.32-7.36-1-7.33-1.33s3.1 0 7.17-1.17c1.76-.51 3.83-.88 3.83-1.5s-1.89-1.1-3.17-1.37m-3.33-1.13a50.05 50.05 0 0 1-18.67-3" class="cls-2"/>
        <path d="M285.17 85.13a11.28 11.28 0 0 1-2.88 3.87 12.2 12.2 0 0 1-8.62 2.75M177 95.5a36.33 36.33 0 0 0 13.25 3c2.94.09 6.37-.56 13.13-1.87 12.29-2.39 16-4 17.5-4.75a46 46 0 0 0 7.38-4.37M200 102a82.19 82.19 0 0 0 15.25-2.25c1.11-.27.21-.08 10.13-3.12 7.38-2.27 9.4-2.84 11.88-4.62a21 21 0 0 0 5.63-6.12m-29.97 19.24a35.63 35.63 0 0 0 19.38-6.25m5.87.75a31.37 31.37 0 0 0 9.38-3.5 43.51 43.51 0 0 0 7.13-5.37c2.32-2 4.13-3.81 5.38-5.12m2.36 6.74a35.45 35.45 0 0 0 11.75-8m27.75-26.63a40.91 40.91 0 0 1 5.75 8.13c1.93 3.58 1.47 4 5.13 13 1.77 4.34 3.26 7.63 4.38 10 .85 1.8 1.59 3.3 2.13 4.38m-6.77-27.01a12.66 12.66 0 0 1 5.63.88 13 13 0 0 1 6.13 5.25m-8.3-.5c3.61 2.1 5 4.26 5.63 5.88.32.84.62 2.1 1.64 4.85.48 1.29.72 2 1.11 2.78a23.05 23.05 0 0 0 2.91 4.61m1.13-4a29.21 29.21 0 0 1 9.08 7 28.79 28.79 0 0 1 3.75 5.5m.54 2.5a16.78 16.78 0 0 1 2.25 8.13 18.83 18.83 0 0 1-1.25 6.38c-1.42 4.43-2.91 6.12-5.5 11.63-1.16 2.48-2 4.55-2.5 5.88M347 115.25a17 17 0 0 1 0 8.63c-.77 2.77-1.9 3.81-2.87 6.5a19.76 19.76 0 0 0-.75 10m-7.09-2.25q1.32 4.7 2.88 9.63 1.35 4.25 2.75 8.25m.5-11.88a34.12 34.12 0 0 1 4 9.75c.92 3.91.67 6.16 1.38 12.13.47 4 1.07 7.2 1.5 9.25m1.7-7.38a110.31 110.31 0 0 1 0-14c.38-5.81.92-6.78.38-10-.48-2.82-1.41-5.07-2.12-10.12-.19-1.38-.31-2.51-.37-3.25m-24.35-36.13c2.62 2.34 4.84 4.47 6.63 6.25 4.49 4.49 5.08 5.61 5.38 6.88.7 3-.55 6-1.5 8.25a21.24 21.24 0 0 1-2.5 4.38m-9.44-18.92a26.9 26.9 0 0 0 8.38 9.75" class="cls-3"/>
        <path d="M321 225.37a13.36 13.36 0 0 1-3.14 1.54 57.63 57.63 0 0 1-11.31 2.53c-4.1.59-6.62.95-10.28 1.16s-6.6.15-8.94.09c-1.53 0-4-.13-7.16-.44-4.2-.42-5.7-.86-7-1.44a12.85 12.85 0 0 1-3.66-2.28 13.7 13.7 0 0 1-3-4.16 95.58 95.58 0 0 1-5-10.22c-.57-1.43-1.2-3.23-2.44-6.83 0 0-.7-2-2.13-7.36-.59-2.2-.92-3.6-.34-5.1a7.52 7.52 0 0 1 1.72-2.47l.38-.32m2.3-1.49a121.31 121.31 0 0 1 15.08-3.17c5-.72 8.71-.94 13.83-1.25 4.7-.28 2.79 0 17.33-.42 0 0 4-.11 14 .78a8.45 8.45 0 0 1 1.65.31 7.76 7.76 0 0 1 3 1.59c.42.4 1.13 1.21 1.75 4.31a29.62 29.62 0 0 1 .56 5.56 65.44 65.44 0 0 1-.31 7.38c-.06.65-.46 3.28-1.25 8.53 0 0-.06.42-1 5.53a12.17 12.17 0 0 1-1.22 4" class="cls-2"/>
        <path d="M281.76 195.47a4.09 4.09 0 0 0-.91 1.17 4.4 4.4 0 0 0-.44 2.27 6 6 0 0 0 .81 2.72 6.16 6.16 0 0 0 1.92 2m11.18-7.02a3.37 3.37 0 0 1 .61 1.41 3.62 3.62 0 0 1-.06 1.44 6.41 6.41 0 0 1-1.48 2.77 9.26 9.26 0 0 1-2.44 2.06m-4.83-7.29a1.83 1.83 0 0 0-.86.59 2.15 2.15 0 0 0-.17 2 2.4 2.4 0 0 0 1.66 1.31 2.43 2.43 0 0 0 2.2-.66 2.12 2.12 0 0 0 .52-1.73 2.24 2.24 0 0 0-1.3-1.48 2.51 2.51 0 0 0-.7-.22" class="cls-2"/>
        <path d="M231.61 218.5a20.91 20.91 0 0 1-.56 2.81 9.86 9.86 0 0 0-.62 2.94c0 .56 0 1.73.63 2s1.11-.23 1.31-.37a3.85 3.85 0 0 0 1.38-2.25c1.38-5.66 1.81-8.94 1.81-8.94.63-4.8 1.19-6.59.38-7.06-.58-.34-1.54.19-2.31.75m21.91-1.75a1.57 1.57 0 0 0-1.37-.06 1.6 1.6 0 0 0-.75 1.19 3.19 3.19 0 0 0 .44 2 25.11 25.11 0 0 1 .94 3.56c.63 2.19 1.56 4.68 3.38 9.56a3.76 3.76 0 0 0 1.75 2.25 2 2 0 0 0 1.75.06 2.16 2.16 0 0 0 .94-1.75c0-.94-.49-1.47-1.12-2.56a13 13 0 0 1-1.31-3.19" class="cls-3"/>
        <path d="M233.32 209.22a1.92 1.92 0 0 1 .1.32c.28 1.36-1.19 2.28-.79 3.21a1.16 1.16 0 0 0 .54.54m-3.63 3.71a4.09 4.09 0 0 0 1.67.79 4 4 0 0 0 1.08.08m.44-.72a7 7 0 0 0 .63-3.44m26.27 3.17a4 4 0 0 1-1-.83 5.12 5.12 0 0 1-1-2.42 8.21 8.21 0 0 1-.17-1.46" class="cls-3"/>
        <path d="M206.29 293.33a1.51 1.51 0 0 1 .88-.62 1.25 1.25 0 0 1 .63 0 28 28 0 0 0 10.38-1 60 60 0 0 1 7.38-2.12 40 40 0 0 1 6.25-.62c3.89-.09 5.83-.14 7.75.88a11 11 0 0 0 2.75 1.38 9.79 9.79 0 0 0 4 .13 14 14 0 0 0 3.38-.87m31.69 7.59c.21.12.51.33.5.58 0 .46-1.12.76-1.37.83-3.49 1-6.41 3.41-9.75 4.83-11 4.67-9.5 4.7-12.58 5.5a48.3 48.3 0 0 1-10.92 1.42 56.37 56.37 0 0 1-7.42-.25c-2.14-.22-4-.53-5.5-.83m-22.23-15.22c2.67.47 4.87.69 6.38.81 4.69.37 6 0 10.19.5.22 0 .12 0 5.88 1.06 6 1.09 6.83 1.23 8.19 1.38a52.93 52.93 0 0 0 6.94.25c4.56-.1 5.2-.62 9.75-.87.91-.05 2-.09 9.69.13 3 .08 6.26.19 9.81.31M209 296.56a4.86 4.86 0 0 0 .94 1.31c.84.83 1.56.91 2.75 1.75a15.78 15.78 0 0 1 1.44 1.25 15.15 15.15 0 0 0 3.56 2.25m63.17-6.43a8.86 8.86 0 0 0-6.31-3.87m45.74 46.68c.17 2.28.26 4.39.29 6.33.06 3.19-.11 4.27.5 5.67a10.25 10.25 0 0 0 4.33 4.5 83.44 83.44 0 0 1 12.5 10m-177.33-1.67c2.14-1.68 7.24-5.71 12.17-10a11.89 11.89 0 0 0 3-3.67c.79-1.54 1-2.93 1.17-6.83.11-2.05.21-4.62.25-7.58" class="cls-2"/>
        <path d="M163.28 359.77a8.66 8.66 0 0 0-3 2.48c-1.78 2.38-1.76 5.16-1.62 7.5a81.47 81.47 0 0 0 5.26 23.25c1 2.59 1.85 4.81 2.56 6.51" class="cls-2"/>
        <path d="M166.29 357.63a67.74 67.74 0 0 0-9.62 4.5c-3.44 2-4.19 2.78-4.62 3.38-1.11 1.52-2.47 4.7-.25 11.75 5.21 16.56 18.38 28.5 18.38 28.5A135.11 135.11 0 0 0 215 432.63c9.74 3.28 34.2 11.16 64.13 4.38A96.05 96.05 0 0 0 315 421.5c12.86-9.16 18.87-18.45 28.38-33.12 4.88-7.54 7.83-13.49 5.75-18.75-1.92-4.84-7.59-7.83-8.62-8.37a22.27 22.27 0 0 0-9.12-2.5" class="cls-2"/>
        <path d="M335.54 361.38a14 14 0 0 1 4.5 5.38c2.15 4.69.81 9.51-.5 13.5a168.8 168.8 0 0 1-12.87 28.5m5.75-53.01a27.59 27.59 0 0 1 11.75.75c4 1.18 6.76 3 10.5 5.75 8 5.77 13.14 10.09 15.25 11.75 7.06 5.55 8.26 3.7 24.25 11.5s17.62 11.06 31.5 16.5c3.45 1.35 10.32 3.88 12 4.5 2.53.93 4.6 1.68 6.33 2.31m-274.75-54.64a31.55 31.55 0 0 0-14 1.17c-1.94.64-4.91 2.31-10.83 5.67-5.74 3.25-8.66 4.91-10.67 6.83a25.22 25.22 0 0 1-4.83 4.17 19.85 19.85 0 0 1-6.5 2.5c-5.07 1.1-7.55 3.23-17 7.5-11.58 5.23-19.61 8.86-29.5 10.67a44.68 44.68 0 0 0-12 3.5c-3.08 1.43-4.21 2.43-8.33 4.83-1.2.7-2.24 1.27-3.32 1.84" class="cls-2"/>
        <path d="M131.92 371.83a22.16 22.16 0 0 0-2 8.67 24.16 24.16 0 0 0 3.33 12.17 94.54 94.54 0 0 0 14.83 20.83c19.17 19.08 28.76 28.62 36.17 32.67 11 6 19.77 7.83 34.83 11a185.78 185.78 0 0 0 48.33 4c12.82-.76 24.05-1.43 37.67-7.17 12.08-5.09 19.83-11.55 27.17-17.67 10.34-8.62 16.11-16.3 27.67-31.67 4.36-5.8 8.42-11.65 8.83-19.83a28.44 28.44 0 0 0-1.5-10.5M150.67 205.06a5.54 5.54 0 0 1-.19 4.25 4.84 4.84 0 0 1-1.06 1.38m-.42 3.87a4.85 4.85 0 0 1 .81-2.25 4.8 4.8 0 0 1 1.25-1.25m-1.2 4.44a9.16 9.16 0 0 1-.06 3 9 9 0 0 1-.37 1.38" class="cls-2"/>
        <path d="M163.45 266.63q.59 2.23 1.17 4.5l.5 2m-.44 2.1a8.44 8.44 0 0 1 1.67 5.33m2 .84a4.48 4.48 0 0 0 1 3.5c.79.82 1.62.77 2.67 1.67m1.5 1.83a6.17 6.17 0 0 1 1.83 4.33 5.56 5.56 0 0 1-.5 2.17" class="cls-3"/>
        <path d="M167.85 314.73a14.46 14.46 0 0 1 1.67 5" class="cls-2"/>
        <path d="M171.77 292a16.63 16.63 0 0 0 2.63 5.5m-6.4-7.1l1.88 3.75.88 1.75m4.88 4.62q.93 1 1.88 2.13t1.63 2m1.74 2.62a5.81 5.81 0 0 0 1.5 2 5.7 5.7 0 0 0 1.13.75M173 299.77q2 4.41 1.88 4.5m-3.24-.12a5.5 5.5 0 0 1 .75 4 4.86 4.86 0 0 1-.62 1.5m-2.38-.5a24.24 24.24 0 0 1 1.25 3.5c.22.79.38 1.55.5 2.25m-10.75-39.63a18.29 18.29 0 0 0 1.13 6m1.62-2.75l.63 5.25" class="cls-3"/>
        <path d="M161 284.15q.35 2 .75 4 .18.94.38 1.88" class="cls-2"/>
        <path d="M167.14 284.52a6.28 6.28 0 0 0 1.5 4 5.71 5.71 0 0 0 1.38 1.13m-5.25-2a12.91 12.91 0 0 1 .75 3.63 12.74 12.74 0 0 1 0 1.5" class="cls-3"/>
        <path d="M161.14 293a25.73 25.73 0 0 1 1.38 3.25c.19.56.36 1.1.5 1.63" class="cls-2"/>
        <path d="M164.89 296.9a10.93 10.93 0 0 1 .5 5.5m1.61-6.88a6.85 6.85 0 0 1 2.38 2.5 6.62 6.62 0 0 1 .63 1.63m-1.87 1.35v3.38q0 1.16.13 2.25m3.62 10.89a11.72 11.72 0 0 0 2.38 6.75" class="cls-3"/>
        <path d="M175.4 328.46a12.85 12.85 0 0 1 .5 4.38" class="cls-2"/>
        <path d="M185.7 309.71a28.34 28.34 0 0 1 1.56 2.94q.31.67.56 1.31m3.32-.88a21.09 21.09 0 0 0 3.75 5.63m.5 2.06a11.35 11.35 0 0 0-2.5 3.38m-3.37-9.25a26.52 26.52 0 0 0-1 3c-.21.79-.38 1.55-.5 2.25m-3.63-7.75c-.08.95-.2 1.95-.37 3q-.17 1-.37 2m-7.51-11.63q-.09 1.5-.12 3.13v2.5m-2.13-1c.08.82.2 1.7.38 2.63s.32 1.55.5 2.25m4.12-7.38a8.6 8.6 0 0 1 1 4.13 8.27 8.27 0 0 1-.25 1.88m-2.5 1.86a14.18 14.18 0 0 0 .13 6.13m-.27 1.75c.45 1.36.87 2.82 1.25 4.38q.28 1.15.5 2.25" class="cls-3"/>
        <path d="M178.77 333a20.44 20.44 0 0 1 0 4c-.06.62-.15 1.2-.25 1.75" class="cls-2"/>
        <path d="M180.77 317.52a12.8 12.8 0 0 1-.25 5.25m4.12-3.87q.4 1.41.88 2.88.25.76.5 1.5m4.5-1.76q-.63 1.21-1.25 2.5-.74 1.53-1.37 3m-6.38-1.5a13.45 13.45 0 0 0 .25 5.13m2.75-6q.64 1.35 1.38 2.75.44.83.88 1.63m-2.26 1.49a27.84 27.84 0 0 0 1.13 2.88c.29.62.58 1.21.88 1.75m3.47-3.59l.83 3.83m.69-8.91l.67 3.08m2.99-5.41q-.43 1.49-.83 3.08-.27 1.06-.5 2.08m1.67.69a21.21 21.21 0 0 0-1.58 5.42m-1.42 2.23a27.1 27.1 0 0 0 .13 3.13c.06.66.15 1.29.25 1.88" class="cls-3"/>
        <path d="M159.23 283.19a7.61 7.61 0 0 1-.87-5.37m-.69-3.69a16.31 16.31 0 0 1-.87-6.44m-.44-2.06a4.62 4.62 0 0 1-1.25-3.12 4.5 4.5 0 0 1 .75-2.44m.62-2.07a8.39 8.39 0 0 1-2-4 8 8 0 0 1-.12-1.87m-1.69-1.57a3.56 3.56 0 0 0 1.5-2.75 3.5 3.5 0 0 0-1.12-2.56m-1.51-3.19a4.5 4.5 0 0 1-1.06-3.44 3.87 3.87 0 0 1 .5-1.37m-1.98-2.31a4.26 4.26 0 0 0 1.94-2.37 4.13 4.13 0 0 0 .06-2.19m-1.46-2a7.12 7.12 0 0 1-.06-3.75 6.72 6.72 0 0 1 .5-1.31" class="cls-2"/>
        <path d="M153.36 205.38a16.36 16.36 0 0 0 1.06 6.19m6.87 56.31a28.83 28.83 0 0 1 .56-3.19c.22-1 .48-1.83.75-2.62m-1.18-1.94a27.63 27.63 0 0 0-.69-6.94m-2.44-.94a5.39 5.39 0 0 1 .19-3.12 5.21 5.21 0 0 1 .94-1.56m-2.42-1.01a9.25 9.25 0 0 0-.44-8.12m-2.77-.69a4.81 4.81 0 0 1 1-3.19 4.45 4.45 0 0 1 1.21-1.06m-3.14-1.62a35.38 35.38 0 0 1 .44-4c.13-.77.28-1.5.44-2.19m1.26-2.19a14.54 14.54 0 0 1-2.5-5m-.14-5.75a7.68 7.68 0 0 1 1.56 3.31A7.46 7.46 0 0 1 154 218m.54 21.81a18.74 18.74 0 0 0 1.13 5.56m3.5 25.21a4.64 4.64 0 0 1 2.58 1.5 4.5 4.5 0 0 1 .92 1.75m-3.84-6.16a4.71 4.71 0 0 1 0-3.33 4.45 4.45 0 0 1 1.08-1.58m-2.33-.59a4.67 4.67 0 0 0 1.58-3.25 3.9 3.9 0 0 0-.17-1.17m-2.82-5.17a6.87 6.87 0 0 0 1.67 2.08 6.8 6.8 0 0 0 1.42.92m-4.51-4.83l2-2.42" class="cls-3"/>
        <path d="M343.68 203.79v5.63m.44 5.83a4.85 4.85 0 0 0-.81-2.25 4.8 4.8 0 0 0-1.25-1.25m1.19 4.44a9.16 9.16 0 0 0 .06 3 9 9 0 0 0 .38 1.38" class="cls-2"/>
        <path d="M330.34 266.63q-.59 2.23-1.17 4.5l-.5 2m.44 2.1a8.44 8.44 0 0 0-1.67 5.33" class="cls-3"/>
        <path d="M325.94 314.73a14.46 14.46 0 0 0-1.67 5" class="cls-2"/>
        <path d="M322 292a16.63 16.63 0 0 1-2.62 5.5m6.4-7.1l-1.87 3.75-.91 1.75m-4.85 4.62q-.93 1-1.87 2.13t-1.62 2m-1.76 2.62a5.81 5.81 0 0 1-1.5 2 5.7 5.7 0 0 1-1.12.75m10.5-10.25q-2 4.41-1.87 4.5t.88-1.25m2.36 1.13a5.5 5.5 0 0 0-.75 4 4.86 4.86 0 0 0 .63 1.5m2.37-.5a24.24 24.24 0 0 0-1.25 3.5c-.22.79-.38 1.55-.5 2.25m10.75-39.63a18.29 18.29 0 0 1-1.12 6m-1.63-2.75l-.62 5.25" class="cls-3"/>
        <path d="M332.78 284.15q-.35 2-.75 4-.18.94-.37 1.88" class="cls-2"/>
        <path d="M326.65 284.52a6.28 6.28 0 0 1-1.5 4 5.71 5.71 0 0 1-1.37 1.13m5.22-2a12.91 12.91 0 0 0-.75 3.63 12.74 12.74 0 0 0 0 1.5" class="cls-3"/>
        <path d="M332.65 293a25.73 25.73 0 0 0-1.37 3.25c-.19.56-.36 1.1-.5 1.63" class="cls-2"/>
        <path d="M328.9 296.9a10.93 10.93 0 0 0-.5 5.5m-1.62-6.88a6.85 6.85 0 0 0-2.37 2.5 6.62 6.62 0 0 0-.62 1.63m1.86 1.35v3.38q0 1.16-.12 2.25m-3.63 10.89a11.72 11.72 0 0 1-2.37 6.75m-.88 3.13a12.85 12.85 0 0 0-.5 4.38m-10.06-22.07a28.34 28.34 0 0 0-1.56 2.94q-.31.67-.56 1.31m-3.32-.88a21.09 21.09 0 0 1-3.75 5.63m-.5 2.06a11.35 11.35 0 0 1 2.5 3.38m3.38-9.25a26.52 26.52 0 0 1 1 3c.21.79.38 1.55.5 2.25m3.62-7.75c.08.95.2 1.95.38 3q.17 1 .38 2m7.49-11.63q.09 1.5.13 3.13v2.5m2.12-1c-.08.82-.2 1.7-.37 2.63s-.32 1.55-.5 2.25m-4.13-7.38a8.6 8.6 0 0 0-1 4.13 8.27 8.27 0 0 0 .25 1.88m2.5 1.86a14.18 14.18 0 0 1-.12 6.13m.25 1.75c-.45 1.36-.87 2.82-1.25 4.38q-.28 1.15-.5 2.25M315 333a20.44 20.44 0 0 0 0 4c.06.62.15 1.2.25 1.75M313 317.52a12.8 12.8 0 0 0 .25 5.25m-4.1-3.87q-.4 1.41-.87 2.88-.25.76-.5 1.5m-4.5-1.76q.63 1.21 1.25 2.5.74 1.53 1.38 3m6.37-1.5a13.45 13.45 0 0 1-.25 5.13m-2.75-6q-.64 1.35-1.37 2.75-.44.83-.87 1.63m3.96 5.37a20.89 20.89 0 0 0 .5 3.13c.15.63.32 1.21.5 1.75m-2.72-8.76a27.84 27.84 0 0 1-1.12 2.88c-.29.62-.58 1.21-.87 1.75m-3.51-3.59l-.83 3.83m5.41 2.34l.92 4m-7-15.25l-.67 3.08m-3-5.41q.43 1.49.83 3.08.27 1.06.5 2.08m-1.66.69a21.21 21.21 0 0 1 1.58 5.42M305 337a17.63 17.63 0 0 0 2.88 6.75m-6.6-6.1a27.1 27.1 0 0 1-.12 3.13c-.06.66-.15 1.29-.25 1.88" class="cls-3"/>
        <path d="M334.56 283.19a7.61 7.61 0 0 0 .88-5.37m.08-3.42a16.31 16.31 0 0 0 .88-6.44m1.04-2.33a4.62 4.62 0 0 0 1.25-3.12 4.5 4.5 0 0 0-.75-2.44m-1.32-1.38a8.39 8.39 0 0 0 2-4 8 8 0 0 0 .13-1.87m1.68-1.57a3.56 3.56 0 0 1-1.5-2.75 3.5 3.5 0 0 1 1.13-2.56m1.5-3.19a4.5 4.5 0 0 0 1.06-3.44 3.87 3.87 0 0 0-.5-1.37m1.6-2.63a4.26 4.26 0 0 1-1.94-2.37 4.13 4.13 0 0 1-.06-2.19m1.84-1.68a7.12 7.12 0 0 0 .06-3.75 6.72 6.72 0 0 0-.5-1.31" class="cls-2"/>
        <path d="M341.15 205.52a16.36 16.36 0 0 1-1.06 6.19m-7.59 56.17a28.83 28.83 0 0 0-.56-3.19c-.22-1-.48-1.83-.75-2.62m1.18-1.94a27.63 27.63 0 0 1 .69-6.94m1.75-.25a5.39 5.39 0 0 0-.19-3.12 5.21 5.21 0 0 0-.94-1.56m2.44-1.01a9.25 9.25 0 0 1 .44-8.12m2.75-.69a4.81 4.81 0 0 0-1-3.19 4.45 4.45 0 0 0-1.25-1.06m2.51-2.03a35.38 35.38 0 0 0-.44-4c-.13-.77-.28-1.5-.44-2.19m-.57-1.78a14.54 14.54 0 0 0 2.5-5m.13-5.75a7.68 7.68 0 0 0-1.56 3.31 7.46 7.46 0 0 0-.12 1.94m-.51 21.81a18.74 18.74 0 0 1-1.12 5.56m-2.82 24.52a4.64 4.64 0 0 0-2.58 1.5 4.5 4.5 0 0 0-.92 1.75m3.88-6.16a4.71 4.71 0 0 0 0-3.33 4.45 4.45 0 0 0-1.08-1.58m2.29-.59a4.67 4.67 0 0 1-1.58-3.25 3.9 3.9 0 0 1 .17-1.17m2.13-4.48a6.87 6.87 0 0 1-1.67 2.08 6.8 6.8 0 0 1-1.42.92m4.51-4.83l-2-2.42m-143.93 48.23a7.8 7.8 0 0 1 2.08-4.33m66.17-26.12c.76.05 1.57.14 2.41.28s1.38.26 2 .42m-7.66.5a3.68 3.68 0 0 1 .91-.08 3.84 3.84 0 0 1 2.33.92m-26.49 1.79a6.93 6.93 0 0 0 3.81-.25l.27-.11m78.54 23.98a5.34 5.34 0 0 0 4.75-5.25M188 299.9l1.88-2.31 1.06-1.31" class="cls-3"/>
        <path d="M162.54 301.06a12 12 0 0 0 2.56 5.94m1.76-.12a11 11 0 0 1 .38 6.06m3.62 10.31a25 25 0 0 1 2.69 5.44m8.37 7.5a8 8 0 0 0 .44 5.38m2.06-.26a12.91 12.91 0 0 1 1.75 5.88m1.94 1.75a3.15 3.15 0 0 1 .25-2.12 3.1 3.1 0 0 1 1.19-1.25m.37 4.18a8.07 8.07 0 0 1 2.19 4.56m.99-1.55a6 6 0 0 1 3.25 5.69" class="cls-2"/>
        <path d="M187.23 340.81a9 9 0 0 1 1-3.69 8.73 8.73 0 0 1 .75-1.19m-6.06-2.43a13.37 13.37 0 0 1 1.44 5.13m6.5 5.12a7.58 7.58 0 0 0 2.38 4.81m-12.45-44.87a9 9 0 0 1-1.37-3.44 8.7 8.7 0 0 1-.12-1.5m4.56 3a6.06 6.06 0 0 1-.5 4.38m1.87 1a8.65 8.65 0 0 1 4.81-1.56m1.25-3.51a5.31 5.31 0 0 1 3.13-2.44 4.53 4.53 0 0 1 1.31-.12m-8.56 4.75a8.29 8.29 0 0 1 2.63-3.19m34.12 86.32c7.76 5.49 12.13 7.64 14.75 8.5a12.24 12.24 0 0 1 5.63 3.5 10.74 10.74 0 0 1 1.63 2.5m11.61-7.75a29.06 29.06 0 0 0 6.79-4.37c2.09-1.82 3.31-3.44 6.25-5.5a31.14 31.14 0 0 1 3.42-2.08m-73.46-102.8a7 7 0 0 1-2 3.69m-2.12 5.43a4.46 4.46 0 0 1-.25-3.19 3.9 3.9 0 0 1 .5-1m-.13 6.13a7.55 7.55 0 0 1-.06 3.38 7.33 7.33 0 0 1-.5 1.38m1.02 1.36a5.38 5.38 0 0 1 1.19 3.44m-4.71 2.38a15.06 15.06 0 0 0-1.44 4.25m-2.46 1.79a9.06 9.06 0 0 0 4.42 3.67m-.08-3.26a5.71 5.71 0 0 1 2.33-4.08m.58 10.83a13.61 13.61 0 0 1-.08-5.67m.42 7.84a6.32 6.32 0 0 0 2.33 4.75m-1.5 2.92q.08 1.82.25 3.75.11 1.28.25 2.5m-3.58 6.33a5 5 0 0 1 5.5-2.5m-5.21 5.5a8.46 8.46 0 0 0 .58 5.5m1.29 1.75a5.08 5.08 0 0 0-.67 1.92 5.73 5.73 0 0 0 1.33 4.25m.68-47.5a5.53 5.53 0 0 1 1.5-2.92 5.46 5.46 0 0 1 2.17-1.33m-.42 4.25a11.32 11.32 0 0 0-2.08 4.75m.08 4.16a7.76 7.76 0 0 0 2.08-2.75 7.63 7.63 0 0 0 .58-2m1.84 8.61a12.6 12.6 0 0 1 3.42-4.33m-6.76-14.94a4.83 4.83 0 0 1 4.17-1.83m-4.92 21.33a5.77 5.77 0 0 1 1.67-2.58 5.69 5.69 0 0 1 1.83-1.08m58.03 27.96a21.09 21.09 0 0 0 3.75 5.63m.5 2.06a11.35 11.35 0 0 0-2.5 3.38M226.62 344l.67 3.08m3-5.45q-.43 1.49-.83 3.08-.27 1.06-.5 2.08m1.66.67a21.21 21.21 0 0 0-1.58 5.42m31.88-14.98a9.06 9.06 0 0 0 4.42 3.67m1.96 5.15a13.61 13.61 0 0 1-.08-5.67m.41 7.84a6.32 6.32 0 0 0 2.33 4.75m-36.85-10.74q.08 1.82.25 3.75.11 1.28.25 2.5M272.5 337a11.32 11.32 0 0 0-2.08 4.75m-.29 5.25a7.76 7.76 0 0 0 2.08-2.75 7.63 7.63 0 0 0 .58-2m2.71 5.69a12.6 12.6 0 0 1 3.42-4.33m-8.37 7.44a5.77 5.77 0 0 1 1.67-2.58 5.69 5.69 0 0 1 1.83-1.08M236.11 339a28.34 28.34 0 0 1 1.56 2.94q.31.67.56 1.31m3.32-.91a21.09 21.09 0 0 0 3.75 5.66m.5 2a11.35 11.35 0 0 0-2.5 3.38m-3.37-9.22a26.52 26.52 0 0 0-1 3c-.21.79-.38 1.55-.5 2.25m2.5 1.37q-.63 1.21-1.25 2.5-.74 1.53-1.37 3m-3.38-2.37q.64 1.35 1.38 2.75.44.83.88 1.63m-2.26 1.49a27.84 27.84 0 0 0 1.13 2.88c.29.62.58 1.21.88 1.75m3.49-3.59l.83 3.83m.67-8.91l.67 3.08m2.99-5.41q-.43 1.49-.83 3.08-.27 1.06-.5 2.08m1.67.67a21.21 21.21 0 0 0-1.58 5.42m-1.42 2.25a27.1 27.1 0 0 0 .13 3.13c.06.66.15 1.29.25 1.88m-5.67-1.85a9 9 0 0 1 1-3.69 8.73 8.73 0 0 1 .75-1.19m7.85-20.35a13.61 13.61 0 0 1-.08-5.67m.42 7.83a6.32 6.32 0 0 0 2.33 4.75m-1.5 2.93q.08 1.82.25 3.75.11 1.28.25 2.5m-3.58 6.33a5 5 0 0 1 5.5-2.5m-.75-19.67a7.76 7.76 0 0 0 2.08-2.75 7.63 7.63 0 0 0 .58-2m1.84 8.61a12.6 12.6 0 0 1 3.42-4.33m-7.51 4.56a5.77 5.77 0 0 1 1.67-2.58 5.69 5.69 0 0 1 1.83-1.08m-53.39-48.04a4.33 4.33 0 0 1 .4-3.48 4.12 4.12 0 0 1 1.92-1.58m-3.5.33a20.22 20.22 0 0 0-.67-6m2.58.67a11.36 11.36 0 0 1 .5-5.08m1-2.26a4.92 4.92 0 0 0 4.08-.92 4.18 4.18 0 0 0 1.08-1.5m4.34-2.66a4 4 0 0 0-1.75 1.83 3.89 3.89 0 0 0-.33 1.92m5.58-4.58a5.52 5.52 0 0 1-1.5 4.75m-10.16 6.75a4.13 4.13 0 0 1 1.17-3.58 3.77 3.77 0 0 1 2.33-.92m-5.75 9.58a10.29 10.29 0 0 1 4.17-4m13.08-14.12a6.55 6.55 0 0 0 2.25-.62 6.72 6.72 0 0 0 2.75-2.5m42.5-2.76c.85.42 1.77.84 2.75 1.25s2.17.84 3.17 1.17m-26.77 1.2c.92.08 1.89.21 2.92.38.82.14 1.6.29 2.33.46m.99-1.48a12.13 12.13 0 0 0 5.75.58m-18.09 1.12l3-.62 1.75-.37m-36.68 19a6.27 6.27 0 0 1 3.75-2.56m1.63 1.12a7.92 7.92 0 0 0 2.31-2.06 7.82 7.82 0 0 0 .94-1.62m-7.63 1.99a9.49 9.49 0 0 1 1.81-4.44m1.69-1.74a4.44 4.44 0 0 1 .38 4.19m2.87-2.07q1-1.39 1.94-2.87l1-1.56m-.75-1.82l3.81-1.62 1.44-.62m-1.44 2.12a5.37 5.37 0 0 1-1.81 5.31m-1.81 5.69a9.2 9.2 0 0 1 2.08-3.38 9 9 0 0 1 1.56-1.25m.8 4.63a12.2 12.2 0 0 1 1.63-4.5m-.51-1.69a4.94 4.94 0 0 1 3.13-4.12m-1.25-5.07a3.08 3.08 0 0 1 .5 2.44 3 3 0 0 1-1.12 1.69m11.55-3.25a4.62 4.62 0 0 0-3.06 1.5 4.29 4.29 0 0 0-.87 1.63m-4.21-3.88a18.74 18.74 0 0 1 3-.37h1.63m-2.11 1.62a3.36 3.36 0 0 0-1.75 2 3.24 3.24 0 0 0 .06 2m1.69-1.25a3.79 3.79 0 0 1 .5 3.13 3.36 3.36 0 0 1-.87 1.38m-3.13-1.45a6.27 6.27 0 0 1-1 5m.83 2.44a10.37 10.37 0 0 1 3.38-3.19m2.29-3.75a8.17 8.17 0 0 1 .31 4.06m1.38-4.87a4.16 4.16 0 0 1 1.38-2.56 3.77 3.77 0 0 1 1.06-.62m-1.38 5.68a8.65 8.65 0 0 1-1.62 4.19m6.06-11.32a7.39 7.39 0 0 1-2 3.81m-1.07 5.69a6.1 6.1 0 0 1 1.44-2.81 6 6 0 0 1 1.5-1.19m-.9 7.33a9.68 9.68 0 0 0 .88-4.58m1.46-3.83a5 5 0 0 1 .83-3.29 4.59 4.59 0 0 1 1.08-1.08m6.05.62a8.63 8.63 0 0 1 1.54 4m-.46 7.91a15.55 15.55 0 0 1-.08-3.54c0-.44.1-.86.17-1.25" class="cls-3"/>
        <path d="M242.34 281.19c-.12.36-.24.7-.36 1-.89 2.36-1.69 3.79-1 5a4 4 0 0 0 2.75 1.5 7.33 7.33 0 0 0 5.63-1" class="cls-2"/>
        <path d="M244.42 276.42a14.31 14.31 0 0 1-.17 4.33c-.08.43-.18.83-.29 1.21m2.5-3.96a4.49 4.49 0 0 0 1 2.88 4.19 4.19 0 0 0 1.21 1m3.33 1.62a4 4 0 0 0 1.83 2.5 3.75 3.75 0 0 0 2 .46M252 272a7 7 0 0 1 3 3.42m-3-.42a3.78 3.78 0 0 0 2 2.75 3.7 3.7 0 0 0 3 0m-5.71 2a3.93 3.93 0 0 1 2.08.63 3.87 3.87 0 0 1 1.13 1.13m1.5-1.63a5.34 5.34 0 0 0 .21 2.54 5.24 5.24 0 0 0 .71 1.38m-.59-11.42a15.65 15.65 0 0 0 5.13.08m-.92-2.38a4.56 4.56 0 0 1 2.58.58 4.49 4.49 0 0 1 1.42 1.29m-.08-2.95a8.71 8.71 0 0 1 2.46 1.92 8.49 8.49 0 0 1 .71.92m1.87-1.01a4.72 4.72 0 0 0 3.88.42m2.04.33a11.33 11.33 0 0 1 3.92 2.46m1.58.25a5.57 5.57 0 0 0 1 2.21 5.39 5.39 0 0 0 .71.79m2.2-.58a5.13 5.13 0 0 1 1.71 1.63 5 5 0 0 1 .58 1.25m-29.49 5.74a6.71 6.71 0 0 0 2 1.13c.61.21 1 .23 1.92.5l.25.07m-4.3-12.9a8.22 8.22 0 0 1 1.25 1.58 5.94 5.94 0 0 1 .58 1.21 5.61 5.61 0 0 1 .25 1m-.66 1.25a8.5 8.5 0 0 1 .42 2 6.85 6.85 0 0 0 .25 1.63 5.36 5.36 0 0 0 .29.75m.79-8.47a6.21 6.21 0 0 0 4.5 1m-3.71 1.25a10.19 10.19 0 0 0 2.88 1.88 10.08 10.08 0 0 0 1.18.42m-4.06.25a3.74 3.74 0 0 1 2.73 1.54 3.46 3.46 0 0 1 .57 1.87m-2.38-1a4.48 4.48 0 0 0 1.46 3.08m-.17-11.91a4.23 4.23 0 0 1 2 .54 4.13 4.13 0 0 1 .88.67m56.7 14.16a13.25 13.25 0 0 1 2-5.08m13.54-79.31A10 10 0 0 1 341 201a9.6 9.6 0 0 1 .75-.69m-48.21 107.32a6.07 6.07 0 0 1-.12 2 4.36 4.36 0 0 1-.66 1.59 4 4 0 0 1-.75.81m-23.59-38.9a10.9 10.9 0 0 0 3.13.38 10.76 10.76 0 0 0 1.38-.12m-4.32 1.61a6.64 6.64 0 0 0 4.56 1.13m-6 .12a10.05 10.05 0 0 1 2.81 3.44m-3.25-1.25a4 4 0 0 0 .94 3.13 3.4 3.4 0 0 0 1.06.75m-2.12 1.31a7.59 7.59 0 0 0 3.19 1.44 7.33 7.33 0 0 0 1.5.13m-.01-2.76a6.17 6.17 0 0 1 2.5 2.56 5.79 5.79 0 0 1 .5 1.44m-2.29-7.88a5.87 5.87 0 0 0 2.13 1.75 5.56 5.56 0 0 0 .81.31m-.15-5.87a4.66 4.66 0 0 1 2.06 3.31m1.51-2.62a11.48 11.48 0 0 0 2.88 3.5m-5.13-.25q.77 1.37 1.56 2.75l.69 1.19m-2.69-.13l1.44 1.75 1.06 1.31m10.83-6.25a5.13 5.13 0 0 0 1.63 2.19 4.79 4.79 0 0 0 .69.44m-11.53-1.56a3 3 0 0 1 2.31 1.63 2.61 2.61 0 0 1 .13 1.56m1.5-4.88a3.5 3.5 0 0 0 3.27 2.81m-3.46-.12a3.51 3.51 0 0 1 2.19 1.81 3 3 0 0 1 .25 1.13m-3.98 1.12a4 4 0 0 0 1.25 1.44 4.06 4.06 0 0 0 2.63.69m2.48-2.13a4 4 0 0 1 2.31 1.06 3.87 3.87 0 0 1 1 1.63m.44-3.94a7.61 7.61 0 0 0 1.5 1.56 7.47 7.47 0 0 0 .63.44m1.55.5a4.13 4.13 0 0 1 .63 2.31 4.08 4.08 0 0 1-.5 1.81m-5.63-1.56q.35 1 .69 2.06.2.63.38 1.25m2.75-2.62c.13 1 .27 1.78.38 2.31a5.82 5.82 0 0 1 .19 1.63 4.12 4.12 0 0 1-.44 1.56M312.5 301a8.84 8.84 0 0 1 3.42-2.83m-5.59 3.5a3.24 3.24 0 0 1 1.33 2.58 2.78 2.78 0 0 1-.5 1.42m-3.87 1.64a5 5 0 0 1 1.63-3 4.25 4.25 0 0 1 .75-.5m-4.5 2.07a10.82 10.82 0 0 1 0 3.25c-.05.33-.11.64-.19.94m-5.69-7.38a16.7 16.7 0 0 0 2 3.44c.29.38.58.74.88 1.06M296 296.63q.25 1.5.56 3.06.12.6.25 1.19m2.36 6.12a14.63 14.63 0 0 1 1.19 4.56m-8.94-15.77a10.79 10.79 0 0 0 2 3m4 3.77a3.25 3.25 0 0 1-.31 2.25 3 3 0 0 1-.75.88m-5.44-5.86a7.35 7.35 0 0 1 1 2.92 4.32 4.32 0 0 1-.08 1.42 4.15 4.15 0 0 1-.33.92m2.41-4.01a15.63 15.63 0 0 0 1.25 3.17M295 306c.27.63.52 1.19.75 1.67a3.54 3.54 0 0 0 1 1.5 2.4 2.4 0 0 0 .75.38m.75 2.12a8.23 8.23 0 0 1 .29 1.54 3.89 3.89 0 0 1-.08 1.75 3 3 0 0 1-1 1.33m-120.29-22.21a7.22 7.22 0 0 1 2.17 2.42 7.13 7.13 0 0 1 .75 2.08m1.83 2.67a9 9 0 0 1 4.33-3.08m114.58.08a5 5 0 0 1 1.58 4.33M304 301a5.22 5.22 0 0 1 3.08 2.58m.5-3.5a7.62 7.62 0 0 1 4.17-.08m-.5-2a11.46 11.46 0 0 1 6.17-1.33m-90.35-26.42a6 6 0 0 0 3.19-.62 5.6 5.6 0 0 0 .88-.56m56.79 18.64a4.88 4.88 0 0 1 .79 3.5m6.2 21.73c.12.82.28 1.7.5 2.63.15.64.32 1.25.5 1.81m-14.25 27.54a5.71 5.71 0 0 1 .17-3.67 5.39 5.39 0 0 1 1-1.58m-.59-7.75a6.2 6.2 0 0 1 1.83 5.08m1.59-5.33a12.07 12.07 0 0 1-.42-5.83m1.42-3.26a4.45 4.45 0 0 0 3.67 3.75m-.52-3.77a14.84 14.84 0 0 0 .08-4.25c-.06-.5-.15-1-.25-1.42m-.32-6.64a17.78 17.78 0 0 0 1 5m-.16-9a3.54 3.54 0 0 1 1.42 2.25 3.23 3.23 0 0 1-.08 1.33m-5.09 6a11 11 0 0 0 .83 3.42 10.69 10.69 0 0 0 .58 1.17m-5 3.08a9.06 9.06 0 0 1 .08 4.58m-2.83-1.41a19 19 0 0 0 .08 2.83c.06.6.15 1.15.25 1.67m-3.91-1.42a13 13 0 0 0 2.75 4.17m1.58.58a16.68 16.68 0 0 1-.42 4.83m-6.91-8.75a5 5 0 0 0 .5 3.58 4.23 4.23 0 0 0 .67.83m2.08-.74a3.66 3.66 0 0 1 .08 2.42 3.73 3.73 0 0 1-1.92 2.17m1.09 4.91a6.52 6.52 0 0 1 1.17-3.42 6.19 6.19 0 0 1 1.08-1.17m-51.5-25.66c-.14.94-.33 1.94-.58 3-.16.64-.32 1.25-.5 1.83m3.33 1a4.79 4.79 0 0 1 .5-2.83 4.42 4.42 0 0 1 .58-.83m2.5 1.66a4 4 0 0 1-1 3.5 3.4 3.4 0 0 1-1.75.83m2.48 3.55a9.5 9.5 0 0 1 1.08-2.67c.16-.27.33-.52.5-.75m2.36-.54c-.31-1.26-.59-2.6-.83-4q-.14-.8-.25-1.58m3.33 3.08a6.78 6.78 0 0 1-.75 4.08m-11.08 2.34a24.4 24.4 0 0 1 1.17-2.92q.21-.43.42-.83m.99 5.08a3.9 3.9 0 0 1-.33 4.33m-4.54 7.1a9.71 9.71 0 0 1 1.67-4 9.27 9.27 0 0 1 .92-1.08m-24.22-55.06a6.22 6.22 0 0 1 2.33-2.17 6 6 0 0 1 1.67-.58m4.17-1.12a5.35 5.35 0 0 0 4.42-2.33m63.95-.71a8.67 8.67 0 0 0 2.88 2.13 8.53 8.53 0 0 0 2 .63m3.75 1.36a5 5 0 0 0 2.06 3.06m-85.23 26.23c-.23.78-.46 1.61-.67 2.5s-.37 1.71-.5 2.5m-1.25 12.54a8.5 8.5 0 0 1-2.08 5.67m3.33-1.33a4.81 4.81 0 0 1-2 4.5m.92 2.66a5.1 5.1 0 0 1 .42 2 6.45 6.45 0 0 1-.42 2.08 12.12 12.12 0 0 1-.83 2m-2.25-.24a9.49 9.49 0 0 0-.75 4.42m-.5 2.91c.8-.66 1.65-1.41 2.5-2.25.57-.56 1.1-1.12 1.58-1.67m-3.58 5.17c.44.43.88.9 1.33 1.42a25.22 25.22 0 0 1 1.92 2.5m-2.5.5a10.54 10.54 0 0 1 .58 6.08" class="cls-3"/>
        <path d="M198 358.16a5.76 5.76 0 0 0 1.92 4.5 4.7 4.7 0 0 0 1.67.83" class="cls-2"/>
        <path d="M202.08 360.08a35.09 35.09 0 0 1 1.33-3.33c.33-.71.66-1.38 1-2" class="cls-3"/>
        <path d="M211.39 368.62a23.36 23.36 0 0 0 6.08 4.83M204.92 367a14.37 14.37 0 0 0-1.33-5.25m3.58 1.33q.7 2.26 1.58 4.67.49 1.33 1 2.58m8.42-1.58a16.21 16.21 0 0 1 3.25 5.58m3.83.84a11.48 11.48 0 0 1 2.42-5.83m3.33 7.83a17.28 17.28 0 0 0-.25-3.58c-.09-.53-.21-1-.33-1.5m4.25.99a9.71 9.71 0 0 0 .92 2.25 6.68 6.68 0 0 0 2.25 2.58 5.58 5.58 0 0 0 1 .5m2.33-4.99c.21.83.41 1.72.58 2.67s.31 1.88.42 2.75m3.25-.51a26.22 26.22 0 0 0 .83-4.08c.09-.7.14-1.37.17-2m3.75 5.92a4.14 4.14 0 0 0 2.42-1.58 9.35 9.35 0 0 0 1-2.58c.11-.38.19-.69.25-.92" class="cls-2"/>
        <path d="M207.5 328a4.79 4.79 0 0 1 2.08-3.58m-3.83 4.91a4 4 0 0 0-.08 1.75c.14.76.45 1.07.42 1.67a2.23 2.23 0 0 1-.75 1.42m-.34 2.75c.07.91.17 1.89.33 2.92.12.79.26 1.54.42 2.25m6-14.51a3.74 3.74 0 0 0-1.58.5 3.9 3.9 0 0 0-1.67 2.08m4.83-1.58a3.68 3.68 0 0 1 .83 1.67 11.3 11.3 0 0 1 .08 1.75m-9.91-9.33a5.21 5.21 0 0 1 1.75-.33 5.28 5.28 0 0 1 2.92.83m7.75 8.08c1.63.6 2.07 1.17 2.17 1.58 0 .14.17.92.17.92m1.24 2a4.93 4.93 0 0 1 .83-1.5 5 5 0 0 1 2.08-1.5m-12.16-.5a3 3 0 0 1-.17 1.58 3.57 3.57 0 0 1-2.67 1.92m4.93-1.25a7.76 7.76 0 0 0 2.92 1.58m2.74 1.25a11.62 11.62 0 0 1 1.75 5M209.42 338a6.88 6.88 0 0 1-1.25 3.75m-4.75 3.58a5.1 5.1 0 0 0 2.25 2.92m2.33-3.17a23.12 23.12 0 0 0 2.33-1.25c.54-.33 1-.67 1.5-1m-6.91 7.92a7.2 7.2 0 0 0 1.42 1.58 4.48 4.48 0 0 0 1.5.92 3.92 3.92 0 0 0 1.75.17m-3.01 3.83a5.23 5.23 0 0 1 1.83.83 5.3 5.3 0 0 1 1.75 2.17m-.99-10.5a5.79 5.79 0 0 0 2.83-1.83 5.57 5.57 0 0 0 .83-1.5 5.05 5.05 0 0 0 .25-1.08m-.83-4.84a15.2 15.2 0 0 1 4.5-2.25m-2.08 2.83a11.26 11.26 0 0 1 1.67 5m1.58-4.16a7 7 0 0 0 3.5 4.33m1.83-2.75a5.72 5.72 0 0 1 .92-2.17 5.8 5.8 0 0 1 3.17-2.25M213.17 350a11 11 0 0 1-.83 4.75m2.49-6.58a9.06 9.06 0 0 0 3.25 2.25m6.34-2.17a6.49 6.49 0 0 0-1.25 4.25m8.66 1.25a4.8 4.8 0 0 1 .17 2.58 4.71 4.71 0 0 1-.67 1.58m.42 8.34a14.31 14.31 0 0 1-.08-2 7.32 7.32 0 0 1 .5-2.92 5.74 5.74 0 0 1 .5-.92m2.08 4.26a5.6 5.6 0 0 1-1.17 5.67m-4.33-14.84a5 5 0 0 0-.5 1.67 5.13 5.13 0 0 0 .42 2.67m-2.34 6.74a14.47 14.47 0 0 0 2.83-3.75m-3.33-10.08a6.1 6.1 0 0 1-3.92 5.17m-9.33 1.16a8.32 8.32 0 0 1 1.83-4.33m5.09-2a6.12 6.12 0 0 0 .67 3.67m-3.42-2.92c0 .79 0 1.62-.08 2.5 0 .61-.1 1.19-.17 1.75m-5.17 7.25a12.78 12.78 0 0 1 2.58-4.33m1.01 7.58a8 8 0 0 0 .17-1.5 8.18 8.18 0 0 0-.67-3.33m1.75-3.42a4.48 4.48 0 0 0 1.42 2 4.38 4.38 0 0 0 1.42.75m1.74-3.33a8.5 8.5 0 0 1 .83 5m3.25-.09a3.76 3.76 0 0 1-.58-3.17 3.32 3.32 0 0 1 .92-1.42m-2.09 6.09a5.85 5.85 0 0 1-.67 4.83m-4.91-6.08a7.47 7.47 0 0 0 2.58 2.92M235 351.67a6 6 0 0 1 .58-3.17 5.77 5.77 0 0 1 .92-1.33m-5.92-8.25a6.61 6.61 0 0 1 .92-4.75m1.67-5.84a4.7 4.7 0 0 1 .92 2.67 4.62 4.62 0 0 1-.42 2m1.91-4v-1.42a17.34 17.34 0 0 0-.67-4.08m5.92-4.67a9.78 9.78 0 0 1 .5 4.83 9.51 9.51 0 0 1-.75 2.5m-5.83 11.26a16.61 16.61 0 0 1 4.58-5.67m1.84-3.58a8.74 8.74 0 0 1 .33 5.75m-1.5 6.58a19.36 19.36 0 0 1-.5-5.58m5.17-14.09a11.23 11.23 0 0 0 0 4.92m19.75-9a5.12 5.12 0 0 1-.25 3.92m-2.59-1.75a21.63 21.63 0 0 0 1.58 4.58m-5.33-3.92a2.79 2.79 0 0 1 .83 1.42c0 .22.13.76-.58 2.83-.19.56-.37 1-.5 1.33m-3.58-4.41q.09 1.53.25 3.17.15 1.46.33 2.83m-5.41-4.42a16.49 16.49 0 0 1-2.33 5.08m4.16-3.58a13.24 13.24 0 0 0 1 5.5m6.08-1.33a19.44 19.44 0 0 0 1.67 4.5m2.5.83a8.6 8.6 0 0 0 2.83 2.83m5.17-2.99a8 8 0 0 1-2.75 4.25m-10.67-4.92a7 7 0 0 0 1 3.75 6.57 6.57 0 0 0 .92 1.17m-4.75-6.75a8.14 8.14 0 0 1-.58 3.67 8 8 0 0 1-1 1.75m-6.5-4.26c-.39 1.19-.85 2.44-1.42 3.75-.33.76-.66 1.48-1 2.17m4.67-7.5a17.94 17.94 0 0 1 1.33 2.75c.2.52.36 1 .5 1.5m-2.25 1.42a5 5 0 0 0 2 2 4.75 4.75 0 0 0 1.08.42m5.09.08a28.14 28.14 0 0 0 1.92 2.25q.55.58 1.08 1.08m34.75-22.33a14.93 14.93 0 0 0 2.25 3.17c.25.27.5.52.75.75m-1.25 1.49a7.13 7.13 0 0 0 .33 5.83m-3.33-7.24a10.06 10.06 0 0 1 0 3.83 9.87 9.87 0 0 1-.58 1.92m-3.67.41a9.18 9.18 0 0 0 1.58 4.67m6.08-1.33a7.08 7.08 0 0 0 2.08 4.58m-4.49-5.92a5.73 5.73 0 0 1 .08 4 5.13 5.13 0 0 1-.75 1.33m11 5.84a5.32 5.32 0 0 0 3 3.5" class="cls-3"/>
        <path d="M313.42 340.83a7 7 0 0 1-1.08 4.33m-2.26-.24l-1.42 2-2.91 4.08m23.53-44.73a10.86 10.86 0 0 0-2.58 3.08 10.63 10.63 0 0 0-.75 1.67m-2.7 11.15a4.41 4.41 0 0 1 0 2.67 11.46 11.46 0 0 1-1.08 1.75 13.68 13.68 0 0 0-.83 1.67m-.84 2.91q-.23 1.4-.5 2.83t-.5 2.58m-1.5 2.67q-.66 1.22-1.42 2.5-.54.91-1.08 1.75m-14.08 11.67a7.64 7.64 0 0 1 .83-3.17 7.41 7.41 0 0 1 .75-1.17m-4.25 5.34a8.67 8.67 0 0 1-2.92 3.33 8.19 8.19 0 0 1-1.42.75M256.67 377a13.21 13.21 0 0 1 4.17-3m2.24 1.92a6.18 6.18 0 0 0 4.33-2.17 4.72 4.72 0 0 0 .5-.83m3.59 1.16a9 9 0 0 1 1.25-1.42 9.26 9.26 0 0 1 3.5-2m3 1.59a14.44 14.44 0 0 0 2.42-4.67m2.83.92a13.11 13.11 0 0 1 4.75-4.25m1.5-1a6.45 6.45 0 0 0 1-1.17 7.3 7.3 0 0 0 1.08-4.75m36.34-53.75a3.36 3.36 0 0 1 .58-2.75 2.77 2.77 0 0 1 .83-.67" class="cls-2"/>
        <path d="M261.83 325.5a18.52 18.52 0 0 0 0 5m24.92 4.67a5.46 5.46 0 0 0 3.33 2.83m5 .33a6.27 6.27 0 0 1-.42 4.17m3.42-1a13.74 13.74 0 0 0 2.5 4m2 .83a14.35 14.35 0 0 1-3.5 4.08m-1 3.76a8.52 8.52 0 0 1-1-2.58 8.7 8.7 0 0 1 .25-4.42m-6.25-4.67q.84.58 1.75 1.17 1.19.76 2.33 1.42m-6.16-5.17c0 .69 0 1.42.08 2.17.06.94.15 1.83.25 2.67m-3.66-6.43a6.92 6.92 0 0 1-.17 3.17 6.79 6.79 0 0 1-.75 1.67m7.17 2.25a16 16 0 0 1 2.33 3.83M260 347c.33.45.67.95 1 1.5a19.17 19.17 0 0 1 1.08 2.08m-4.91-1.91a6.22 6.22 0 0 1-1.17 6m-2.75-3.09a4.38 4.38 0 0 0-.17 3.92 3.65 3.65 0 0 0 1.25 1.33m-2.66 1l2 3.58m-3.42 9.76a3.62 3.62 0 0 1 3.08-4.08m.34-3.92a5.76 5.76 0 0 1 2.75 4.42 4.87 4.87 0 0 1-.67 2.5m3.42 1.91a5 5 0 0 1 .08-3.25 4.91 4.91 0 0 1 1.33-1.92m-3.83-8.5a14.8 14.8 0 0 0 1.42 4.25m2.16-10.16a4.42 4.42 0 0 0 2.25 4.83m-4.16-1.42a6.52 6.52 0 0 1 2.17 5.42m2.74 5.42a6 6 0 0 1-.33-4.75 5.22 5.22 0 0 1 1.17-1.75m1.5-4.84a8.18 8.18 0 0 0 2.42 4.42m.49-4.25a8.4 8.4 0 0 1 3 4m1.25-8.25a16.05 16.05 0 0 0 2.17 5.33m.67-6.66a9.79 9.79 0 0 1 3.08 2.25m3 .83a5 5 0 0 1-1.25-3.17 5 5 0 0 1 .83-2.83m2.59-1.75a11.52 11.52 0 0 1 1 5.5m3-3.67a5.15 5.15 0 0 0 1.58 2.83 5.08 5.08 0 0 0 2.25 1.17m2.33.75a5.78 5.78 0 0 0 1.08 4.75m-4.08-2.91a7.68 7.68 0 0 0-.67 1 8.11 8.11 0 0 0-1 3.58m-2.49-7.25a14.22 14.22 0 0 0 0 5.33m-8.92-1.41a9 9 0 0 0 5.67 1m-17.84 7a6.77 6.77 0 0 1-.33 5.58m-3.08.58c.35.3.74.61 1.17.92a18.45 18.45 0 0 0 1.83 1.17m4.33-1.09l.58-6.83m2.84-1.67a8.83 8.83 0 0 0 2.58 4.42m.17-6.92A16.25 16.25 0 0 1 279 366m1.5-7.08a10.31 10.31 0 0 1 1.75 4 10.19 10.19 0 0 1 .17 2.75m1.41-7.17a17.57 17.57 0 0 0 5 3.42m-97-70.67q.35-1.41.67-2.92.28-1.32.5-2.58m2-3.5a3.66 3.66 0 0 1 3-3.33m10.08-5.67a5.63 5.63 0 0 1 2.58-1.25 5.57 5.57 0 0 1 2.08 0m4.84-1.08a11.63 11.63 0 0 1 3.5-2.25m-11.41-77.79a19.44 19.44 0 0 1 8.5 3 18.41 18.41 0 0 1 2.13 1.63m49.99.12A33.09 33.09 0 0 1 281 191.5" class="cls-3"/>
      </g>
    </g>
  </g>
</svg>