<svg xmlns="http://www.w3.org/2000/svg" viewBox="0 0 501 501">
  <defs>
    <style>
      .cls-1, .cls-2, .cls-3, .cls-4 { fill: none; stroke: #000; stroke-miterlimit: 10; } .cls-2 { stroke-width: 0.5px; } .cls-3 { stroke-width: 0.25px; } .cls-4 { stroke-width: 0.3px; }
    </style>
  </defs>
  <g id="Layer_2" data-name="Layer 2">
    <g id="WRP">
      <circle id="border" cx="250.5" cy="250.5" r="250" class="cls-1"/>
      <g id="line">
        <path d="M335.6 252.16c.06-.64.12-1.39.2-2.29.52-6.39.49-8.52 1.41-12.47a58.88 58.88 0 0 1 2-6.55c1.27-3.55 2.16-5.09 3.68-9.18a38.57 38.57 0 0 0 1.86-5.46 20.15 20.15 0 0 0 .12-6.83M234.79 363.57c6.52.44 12 .68 16.24.82 12.42.42 16.24.08 20.19-.74a39.31 39.31 0 0 0 11.16-3.89c3.26-1.81 5.46-3.91 9-7.2 2.35-2.17 3.92-3.84 6.93-7.05 3.77-4 6.53-7.19 7.41-8.21 4-4.66 7.2-8.28 10.85-13.37 4-5.59 6.55-9.13 9-14.58a75.42 75.42 0 0 0 4.25-12.42A114.49 114.49 0 0 0 334 275c.19-2.24.23-3.68.28-5.2" class="cls-2"/>
        <path d="M345.81 207.22a9.84 9.84 0 0 1 1.47-7.14c.93-1.26 2.7-2.13 6.24-3.88 4-2 5.32-2.06 6-2s3.43.07 4.8 1.93c.5.68.47 1.14.94 3.19.56 2.45 1 3.63 1.24 4.53 1.11 4.3-.4 12.08-2.06 19.8-1.83 8.56-1.81 7.55-2.2 10.13-1.11 7.42-.3 9.17-1.77 13.63a29.53 29.53 0 0 1-5.86 9.89 38 38 0 0 1-12 9.77 36.37 36.37 0 0 1-7.05 2.7" class="cls-2"/>
        <path d="M359 212.11a72.76 72.76 0 0 0-.3 9.12c0 .7.25 8.61 1.08 8.65.59 0 .69-3.9 2.49-12 1-4.33 1.94-7.73 1.88-12.84-.06-4.93-1-5.52-1.39-5.65-.9-.32-2.39 1-5.33 3.77a28 28 0 0 0-4.34 4.54c-1.34 2-1.36 2.91-3.11 5.69a34.28 34.28 0 0 1-2.19 3.08m-.79 6.28a15 15 0 0 1 8.27 5.54 10.42 10.42 0 0 1 1.8 3.79c.83 3.53-.62 6.47-1.67 8.59-1.13 2.29-3.43 6.94-6.51 6.75a4.76 4.76 0 0 1-3.21-2.06m-.76-22.82a4.75 4.75 0 0 0-1.79 2.13 5 5 0 0 0-.15 3.16 9.14 9.14 0 0 0 1.2 2.44 10.17 10.17 0 0 1 .89 5.77 11.91 11.91 0 0 1-1.51 4.55c-.94 1.76-1.71 2.28-3.1 4.94a4.12 4.12 0 0 0-.64 3c0 .15.3 1.13 1 1.35s2.07-.62 2.88-2.36m15.98-12.35a17.89 17.89 0 0 1-.47 6.91c-.65 2.35-1.16 2.14-2.62 6-1 2.76-1.23 4.07-2.62 5.95-.34.47-2 2.72-3 2.36-.23-.08-.43-.29-1.28-2.53-.3-.79-.54-1.46-.71-1.93m-41.17-66.46a37.7 37.7 0 0 0-6.68-3.72c-2.95-1.26-5.62-2.41-9.29-2.43a19.62 19.62 0 0 0-6.69 1.2 22 22 0 0 0-6.49 3.62 29.47 29.47 0 0 1-3 2.4c-1 .65-1.46 1-1.73 1.13-1 .58-1.31.59-1.52 1a2.3 2.3 0 0 0 .82 2.64 2.55 2.55 0 0 0 1.41.44 19.25 19.25 0 0 0 4.31-.27 18.94 18.94 0 0 1 4.5.09 23.1 23.1 0 0 1 3.35.67 25.19 25.19 0 0 0 9.83.19 41.8 41.8 0 0 0 7.46-2.1c1.33-.48 2.43-.94 3.19-1.27" class="cls-2"/>
        <path d="M288.42 177.76a30.84 30.84 0 0 1 4.38-.16 25 25 0 0 1 4.82.59 26.76 26.76 0 0 1 5.83 2.16 18.8 18.8 0 0 1 4.41 2.46 27.12 27.12 0 0 0 3.16 2.56c.54.36 1 .64 1.32.82m-31.21 8.01a48.59 48.59 0 0 0 9.8 1.69 30.86 30.86 0 0 0 4.42.09c1.39-.08 3.49-.32 10.63-2.46 1.18-.35 2.82-.85 4.78-1.49" class="cls-3"/>
        <path d="M314.44 169.93c2.06.88 4 2 6 3 1.27.68 2.62 1.45 3.52.9.22-.13.87-.62.89-2.69 0-4.55-3-8.18-3.82-9.12a20.52 20.52 0 0 0-6-4.58 35.34 35.34 0 0 0-12.93-3.76 138.45 138.45 0 0 0-23.49-.71 31.34 31.34 0 0 0-6.31 1.09" class="cls-2"/>
        <path d="M265 164.38c.41.34.95.77 1.6 1.22a25.21 25.21 0 0 0 2.47 1.49c2.62 1.35 12.55-1.26 18.92-1.88a47.41 47.41 0 0 1 14.11 1 59.88 59.88 0 0 1 8 2.07" class="cls-2"/>
        <path d="M268.14 155.44A22.68 22.68 0 0 0 264 158a20.65 20.65 0 0 0-2.93 2.69c-2.64 3.1-2.94 7-3.23 11.48-.13 2 0 2.14 0 7 .08 8.17-.24 7.8-.07 12a79 79 0 0 0 1.58 13c.48 2.29 1 4.18 1.39 5.53m-112.41-4.36a9.67 9.67 0 0 0-.32-1.84c-1.14-4.14-4.83-6.27-6.85-7.64s-4-2.71-6.46-2.29c-2.72.46-4.35 2.78-4.9 3.57a12 12 0 0 0-2 6c-.74 6.84-1.22 11.23.15 17.84.86 4.13 1.22 3.26 2.82 9.39 2.09 8 1.3 8.83 2.88 14.39 1.72 6.06 3.24 11.38 7.86 15.49 1.1 1 4 2.83 9.71 6.53 1.57 1 2.87 1.83 3.75 2.39m-4.89-65.8a31.19 31.19 0 0 0-.83 8.32c.07 1.91.28 2.61 2.34 12.88.91 4.52.9 4.53 1.22 6.06.78 3.72 1.32 6.14 1.67 7.83.49 2.4.7 3.87.81 4.76 0 .08 0 .4.09.86.14 1.37.25 3 .27 4.92" class="cls-2"/>
        <path d="M146.19 215.55a30.72 30.72 0 0 0-5.14-8.92c-1.39-1.65-1.13-1-4.84-4.85-2-2.07-2.54-2.78-3.26-2.69-1.61.21-2.43 4.29-2.84 7.76m5.41 4.32a24.47 24.47 0 0 1 .21 6.51c-.34 3.32-1.19 4.71-1.82 7.55a28.36 28.36 0 0 0 0 10.67c.58 4.16 1.3 9.38 4.68 11.93 1.34 1 3 2.26 5 2 .78-.1 1.41-.41 1.83 0 .64.56.19 2.2-.31 3.16a2 2 0 0 1-.77 1c-.9.46-2.46-.33-3.88-2" class="cls-2"/>
        <path d="M153.61 249c-.49-2.8-1.4-3.69-2.17-4-1.14-.4-2 .51-5 .57a7 7 0 0 1-2-.12c-2.4-.61-3.7-3-4.26-4a11.71 11.71 0 0 1-1.19-7.27m11.39-3.13a14.56 14.56 0 0 0-.21 6.41 15.16 15.16 0 0 0 1.66 4.45 15.44 15.44 0 0 0 1.78 2.54m-12.98-34.34c0 .71 0 1.88-.15 3.33-.24 2.69-.61 3.75.08 4.5a3 3 0 0 0 2.32.63c.94-.12 1.22-.61 2.35-1a5.68 5.68 0 0 1 2.17-.21m81.4 6.23a29.13 29.13 0 0 1-1.32 7.81c-1.11 3.51-2.25 4.64-2.15 7.46a9.11 9.11 0 0 0 5.34 8.27 9.71 9.71 0 0 0 3.48.9m31.56-.62a13.65 13.65 0 0 0 5.29-1.9c1.46-.91 3.2-2 4-4 .61-1.68.28-3.23-.15-5.25a43.47 43.47 0 0 0-1.42-4.28c-.66-2-1-3.56-1.52-5.41-.64-2.51-.67-3-1.27-5.53-.23-1-.54-2.23-1-3.74" class="cls-2"/>
        <path d="M243 248c3.56 2.3 4.43 2.91 6.14 3a9.74 9.74 0 0 0 5.36-1.31c1.89-1.13 1.64-2 4.16-4a13.36 13.36 0 0 1 5.05-2.73c1.49-.38 3.78-.63 4.08.08.23.54-.78 1.42-.95 1.57-1.24 1.09-2.81-.05-4.1 1-.14.11-.57.46-.49.8s.56.55 1.24.59m-25.84.77c.72-.35.87-.58.85-.73-.08-.63-3-.08-4.22-1.67-.51-.69-.71-1.8-.29-2.17s1.73.09 7.43 3.73m-3.29-82.5a34.92 34.92 0 0 1 3.34 8.23 39.06 39.06 0 0 1 1.17 8.36 51.89 51.89 0 0 1-.15 7.67m-75.97-15.14c-.69 1.84-.87 2.59-.44 3.26 1 1.53 4.27 1.23 6.36.63 3.48-1 5.26-3.3 7.23-5.23 4.17-4.09 8.55-5.88 12.53-7.51s12-4.9 19.06-2.88c2.64.75 5.4 1 8.1 1.53a8.33 8.33 0 0 0 4.88-.15 7.09 7.09 0 0 0 2.41-1.58" class="cls-2"/>
        <path d="M225.89 157.93a19 19 0 0 0-8.46-6.74c-2.08-.8-4.07-1-8.06-1.29a51.76 51.76 0 0 0-13.38.24 49.16 49.16 0 0 0-9.8 2.68 58 58 0 0 0-9.25 4.4s-4.39 2.55-6.19 5.42c-.27.43-.5.88-.5.88-.46.94-.67 2-2.38 6.53m20.69 14.41a23.71 23.71 0 0 1 7.67-4.1 22 22 0 0 1 9.52-1c2.62.33 4.66 1.18 8.74 2.88a17.36 17.36 0 0 1 3 1.56 11.34 11.34 0 0 1 1.85 1.41c1.42 1.38 1.32 2.15 2.57 2.93.81.5 1.14.41 1.42.84.46.7-.11 2.35-1.18 2.85-.82.39-1.37-.16-3.29-.48a14.44 14.44 0 0 0-3.64-.09 22.87 22.87 0 0 0-4.52.94 33.45 33.45 0 0 1-5.87.93 24.82 24.82 0 0 1-8-.86 24.52 24.52 0 0 1-4.32-1.65 14 14 0 0 0-4.37-1.52c-.42-.06-.77-.09-1-.1" class="cls-2"/>
        <path d="M196.21 181.23a13.37 13.37 0 0 0-1.22 2.52 9.94 9.94 0 0 0-.63 2.61 5.7 5.7 0 0 0 .24 2.84 4.86 4.86 0 0 0 1.91 2.25m13.2-10.32a8.21 8.21 0 0 1 1.9 2.83 6 6 0 0 1 .37 4.3 6.44 6.44 0 0 1-1.08 1.77 7.7 7.7 0 0 1-1.36 1.31m81.46-8.26a4.3 4.3 0 0 0-1 1.23 2.35 2.35 0 0 0-.4 1.24 2 2 0 0 0 .39 1.13 2.7 2.7 0 0 0 2.44 1 2.59 2.59 0 0 0 1.72-.84 2.54 2.54 0 0 0 .57-1.36 2.28 2.28 0 0 0-.14-1.29 2.35 2.35 0 0 0-.81-.93 3.15 3.15 0 0 0-1.07-.52" class="cls-2"/>
        <path d="M206.89 176.32a24.06 24.06 0 0 0-10.35.55 24.8 24.8 0 0 0-5.88 2.55 22.69 22.69 0 0 0-6.6 5.2 18.51 18.51 0 0 1-3.74 3.84 15.66 15.66 0 0 1-1.94 1.21M192 194c1.34.32 3.25.76 5.56 1.19a40 40 0 0 0 5 .76 30.81 30.81 0 0 0 7-.53c3-.46 3.37-.78 5.6-1a26.89 26.89 0 0 1 4.83 0m-88.3 22.25a1.53 1.53 0 0 0-1.57.44 1.59 1.59 0 0 0-.22 1.4 1.64 1.64 0 0 0 .91 1.21 1.37 1.37 0 0 0 .94 0 1.73 1.73 0 0 0 1-1.26 1.84 1.84 0 0 0-.5-1.54" class="cls-3"/>
        <path d="M209.15 281.43c4.34-1.07 7.8-2.14 10.18-2.93 2.7-.89 4.33-1.52 8.18-2.71 4.43-1.37 6.17-1.74 6.79-1.87a30.25 30.25 0 0 1 7.64-.85 16.79 16.79 0 0 1 5.36.73c2.53.86 3.06 1.87 5.09 1.85A17 17 0 0 0 256 275c1-.26 1.91-.51 2.51-.7m-13.38-9.49c-1 1.67-.79 2.54-.61 2.91.4.83 1.45.68 4.48 1.63 2.33.73 3.51 1.1 4.66 1.05.9 0 3.22-.32 5.78-3.1M207.5 283a2.42 2.42 0 0 0-.29 1.87c.26.86 1.23 1.18 2.59 1.68l4.79 1.76m64.13-9.64c2.57.41 4.61.76 6 1 2.69.48 3 .58 4.2.69.6.06 1.59.14 3 .37 2.28.39 2.76.72 2.89 1.12a1.44 1.44 0 0 1-.36 1.2m-53.35 8.01a58.25 58.25 0 0 0 15 .79 68.57 68.57 0 0 0 11.16-1.91c3.65-.84 4.79-1.27 10.05-2.68 4.31-1.16 7.82-2 10.05-2.55m-76.51-.63a52.32 52.32 0 0 0 9.25 0c4.3-.38 5.46-1 11.29-1.7 3.41-.39 6-.5 8.18-.59 4.73-.2 7.1-.29 9.42.1a20.31 20.31 0 0 0 3.74.49 21.57 21.57 0 0 0 5.43-.81c2.17-.43 4.2-.32 8.25-.09 3.72.21 3.22.49 8.48.92 4 .33 6.46.34 8 .32s3.09-.1 4.09-.17" class="cls-2"/>
        <path d="M283.17 243.25a17 17 0 0 0 8.82 9.18m6.01 6.2a16 16 0 0 1 6 9.12M216.32 239a24.59 24.59 0 0 1-5.36 9.9m-7.81 7.36a58.15 58.15 0 0 0-9 10.82" class="cls-4"/>
        <path d="M300 182.11a5.1 5.1 0 0 1 .92 2.19 8.05 8.05 0 0 1-.13 2.37 9.22 9.22 0 0 1-.42 2.12 5.4 5.4 0 0 1-1.84 2.34m-13.98-9.45a8.86 8.86 0 0 0-.88 2.27 7 7 0 0 0-.21 2.41 6.86 6.86 0 0 0 .82 2.6 8.16 8.16 0 0 0 1.58 2.11M339 169.08c.25 1.83.58 4.61.84 8 .41 5.38.38 9.15.41 10.89a69.81 69.81 0 0 0 3.37 19.45" class="cls-2"/>
        <path d="M233.68 250.53l-3.29 1.94m-2.39 1.7q-1.52.57-3.19 1.1-1.2.38-2.35.7m-2.25 1.38l-5.77 1.05m-1.52.89a32.19 32.19 0 0 0-3.6.68c-.77.19-1.5.4-2.18.62m-1.38 2.64a16.32 16.32 0 0 0-4.44 3.41 16.06 16.06 0 0 0-1.54 2m7.52-.88a32.22 32.22 0 0 0-4.75 6.16m-3.61-.57a7.2 7.2 0 0 1-2.79 2.07 7 7 0 0 1-1.76.47m51.61-23.5l1.33 2.15m-.04 1.46a3.87 3.87 0 0 0 0 1.87 3.75 3.75 0 0 0 .3.82m-1.42-.1a4.09 4.09 0 0 1-.16 1.75 3.72 3.72 0 0 1-.33.74 3.67 3.67 0 0 1-1.78 1.47m-2.01.83a4.63 4.63 0 0 1-.89 1 4.71 4.71 0 0 1-2 1m-1.93-1.85a16 16 0 0 0-3 1.94c-.4.33-.76.66-1.08 1m-2.44-1.63a17.15 17.15 0 0 1-2.48 1.89c-.48.3-.95.56-1.39.79m-3.41-1.63a9.67 9.67 0 0 1-1.73 2.22m-2.49-2.53q-1 1.21-2 2.55-.49.66-.94 1.32m20.58-19.03a5.09 5.09 0 0 1-1.9 3.3m5.58-3.9c-.44.43-.9.92-1.36 1.47a21.91 21.91 0 0 0-1.37 1.81m5.36-.72a5.86 5.86 0 0 1-.92 4.23 4.92 4.92 0 0 1-.85.9m-.59-4.76a10.71 10.71 0 0 1-1.82 3.63m-1.99-.54l-3.54 2m-.83-4.67c-.65.41-1.33.87-2 1.38-.94.68-1.78 1.37-2.54 2m-2.04.82a10 10 0 0 0-4.2 1.83 9.45 9.45 0 0 0-1 .9m-3.68-.4a6 6 0 0 1-2.29 2 6.11 6.11 0 0 1-3.68.51m6.32.91a9.44 9.44 0 0 0-4.76 4.57m-8.15-.99a26.36 26.36 0 0 0 3.28-1.44c.51-.26 1-.53 1.43-.81m.78 3.03q-.32.88-.7 1.82c-.29.7-.58 1.36-.87 2m18.13-11.16l-4.13 2.59m7.72-2.73c-.57.53-1.22 1.08-1.95 1.63s-1.45 1-2.11 1.46m11.16-4.09a11.19 11.19 0 0 0-4.65 3.16m10.07-3.29a8.54 8.54 0 0 1-2.62 1.95M205 276.22a10.23 10.23 0 0 0-2.56 3 10 10 0 0 0-.78 1.73m-2.82-2.85c-.68.39-1.41.83-2.15 1.33s-1.61 1.15-2.28 1.71m37.02 20.35l-2.55 2.45m6.78-1.36a6.26 6.26 0 0 1-2.48 3.2 5.6 5.6 0 0 1-1.18.56m7.75-4.27c-.4.57-.8 1.17-1.2 1.81s-.78 1.28-1.12 1.89m-1.43.31a3.51 3.51 0 0 1-3.3 2.35m7.2-1.27q-.62 1.35-1.22 2.81-.27.67-.53 1.32m5.4-4.93a10.66 10.66 0 0 0-1.7 4m1.98-7.96a5.48 5.48 0 0 1-1.79 2.13m4.29-2.08a3.88 3.88 0 0 0-.88 2.4 3.65 3.65 0 0 0 .23 1.25" class="cls-3"/>
        <path d="M145.13 197.27a31.15 31.15 0 0 1-2.39-5.55 16.43 16.43 0 0 1-1.07-5.19c0-1.55.26-2 .76-4.82s.93-6.42.63-6.49-1.93 6-2.28 6c-.2 0 .08-2.08.83-8.32a28.31 28.31 0 0 0-.17-8.34c-.18-1-.5-2.44-1.12-2.52s-1.58 1.86-1.7 1.8 2-3.28 2.14-7.29v-.58m63.68-105.12c1.18-.52 2.53-1.08 4.12-1.69 9.68-3.75 10.09-2.71 16.61-5.67 3.58-1.63 8.93-4.43 9.08-4.16a9.46 9.46 0 0 0-1.36 1.67 4.86 4.86 0 0 0-.49 1.45M160 87.71c1.31-1.43 2.81-3.36 2.25-4.29s-2.62-.47-2.65-.72c-.06-.5 8.86-1.54 8.89-3 0-.79-2.59-1-2.63-1.89-.08-1.53 7.74-2.55 11.44-4.9M157.73 90.5c-5.16 5-9.05 8.55-9.84 9.15l-.85.64a11.55 11.55 0 0 0-1.35 1c.08.17 4.2-2.07 4.7-1.41s-2.53 2.42-5 6.74c-1.23 2.19-.92 2.49-2.43 5.06-1.6 2.73-3.29 4.67-3.05 4.88s2-1.76 2.49-1.41-1.85 3.44-2.5 8.62c-.28 2.24-.12 3.61-1.11 5.65a20.21 20.21 0 0 1-2.15 3.21c.1.08 3.32-4.31 4.24-3.83s-1.6 3.9-1.61 9.8c0 2 0 4.38.05 4.56.1 1.72.27 3.21.44 4.41m182.51-67.66a60.26 60.26 0 0 1 4.92 3.55 42.84 42.84 0 0 1 6.63 6.38c3.7 4.48 3.89 6.73 7.68 9.9 2.37 2 4.85 3.25 4.68 3.59s-4.62-1.84-5.23-1 4.84 3.21 6.45 8.75c.59 2 1.28 6.55 2.19 9.54a5.61 5.61 0 0 0 .84 1.77c1 1.39 2.41 1.84 2.34 2s-2.94-.84-3.24-.31 2.16 1.79 3.55 4.41c.91 1.73 1 3.27 1 5.56.11 5.84.14 9.62.16 10.76.13 7 1.73 13 1.37 13s-.64-2.77-2.92-4.18c-.5-.31-.85-.53-1.12-.4-1.11.54 1.43 6.14 2.61 13.3.71 4.27.61 8.47.42 16.89-.1 4.39-.33 8-.53 8s-.27-5-.6-5-.6 3.15-1 8M239.23 42.3c.85-.23 1.61-.45 2.28-.66a31.75 31.75 0 0 1 5.49-1.39c2.87-.41 5.8-.35 5.87.12s-2.55.82-2.53 1.45C250.42 43.3 265 44 265.84 44c1.84.08 2.77.12 3.62.11 2.13 0 3.59-.17 3.62 0s-2.86.63-2.9 1.32c-.06 1 6.42.83 13.92 4.27.74.34 3.79 2 9.9 5.32a29.21 29.21 0 0 0 5.08 2.48c2.5.84 4.52 1 4.59 1.72s-1.76.79-2 1.84c-.41 1.57 4 3.35 10 7.57 1.57 1.11 2.8 2.08 3.57 2.7M157.17 155a14.22 14.22 0 0 0-.49 2.52 43.51 43.51 0 0 0 .53 10.61 68.82 68.82 0 0 1 .37 14.84c-.37 4.68-1.5 11.56-4.31 15.75-.12.17-.31.45-.53.82m31.64-133.39a4.55 4.55 0 0 0 1-2.29c.18-1.44-.51-2.49-.2-2.69s1.34 1.55 3 1.81c1.35.21 2.49-.75 4.3-2.29 1.64-1.39 3.37-2.86 3.85-5.05a2.4 2.4 0 0 1 .53-1.36c.78-.78 1.94-.26 3.21-1.06a3.42 3.42 0 0 0 1-.92" class="cls-2"/>
        <path d="M199.64 282.11l-2.8 2.7m58.03-32.74a5.25 5.25 0 0 0 1.46 2 5.14 5.14 0 0 0 1.24.77m-2.78.98l1.2 2.4m1.78-7.84l1.33 2.28m1.57-3.1l1.58 2.28m2.28-1.71l1.84 1.79m1.84 2.08a14.25 14.25 0 0 0 5.62.49m-1.2 3.3l5.76-.26m3.61.95a17.7 17.7 0 0 0 6.85 1.51m1.81 3.01c.36.08.93.22 1.62.41 1.52.42 2 .63 2.86.81a10.16 10.16 0 0 0 2.5.17m-2.44 2.73a6.14 6.14 0 0 0 3 2.18 5.73 5.73 0 0 0 1.49.28m1.55 8.42l5.34 1.86m-51.9-20.42a3.35 3.35 0 0 0 2.21 2.21m1.58-4.22a5.51 5.51 0 0 0 1.3 1.69 5.43 5.43 0 0 0 1 .69M262 253a4.39 4.39 0 0 0 1.93.48 11.48 11.48 0 0 0 1.5-.16l1.07-.17m-6.5 1.33c.33.39.57.72.73 1a7.23 7.23 0 0 0 .91 1.21 3.74 3.74 0 0 0 .68.51m-1.79 5.61a7.25 7.25 0 0 0 2.22 1.54 11.47 11.47 0 0 0 2.65.72 5.19 5.19 0 0 1-.66-.1m-.65-5.34l1.39 1.36 1.32.86m-1.95-5.83l1.04 1.2.98.96m2.69-.86a13.92 13.92 0 0 0 3.51 3.57m-3.2 1.85a10.05 10.05 0 0 0 4.12 2.16m2.33-3.9l1.72 1.7 1.23 1.19m-2.78 1.11a4.1 4.1 0 0 0 1.71 1.87 3.79 3.79 0 0 0 .91.35m1.38-6.35q1.88.23 3.83.41l1.25.11m-3.5 3.84a6.89 6.89 0 0 1 3.13 1.77 6.33 6.33 0 0 1 .57.68m-3.59.32a5.2 5.2 0 0 0 3 2.31 4.84 4.84 0 0 0 2 .12m-1.66-6.88a8.1 8.1 0 0 1 3.81 1.41 7.49 7.49 0 0 1 .74.6m-.56 2.65l2.62 2.22m3.87.23a17.41 17.41 0 0 0 3.53 2.84m-7.94-.75l2.35 1.34 2.03.67" class="cls-3"/>
        <path d="M323.46 318a201.52 201.52 0 0 0-.6 30.66c.21 3.23 1.07 14.53 1.85 24.37l.27 3.34" class="cls-2"/>
        <path d="M282.1 498.44c-13.74-16.34-16.53-26.32-22.6-30.86-.54-.4-2.66-1.93-2.43-3.55.28-2 4.06-3 5.9-3.55 5.74-1.8 6.79-4.48 17.95-14 10.63-9 10.74-7.52 16.93-13.17 13-11.86 19.13-24.73 22.47-31.9 5.51-11.86 6.34-19.36 6.09-25.12-.06-1.4-.18-2.55-.27-3.31m-.74-9.79c4.43 10.52 8 19.37 10.66 26 3 7.68 4.32 11.09 5.69 15.62a119 119 0 0 1 4.45 19.42 104.59 104.59 0 0 1 .73 22c-.65 8-2 11.5-6.54 27.54-1.18 4.18-2.22 7.9-3.14 11.21M174.69 323.76c.15 2.64.44 7.31.87 13.14 1.15 15.63 2 21.54 2.36 32.55.1 3.1.21 8.06.09 14.25" class="cls-2"/>
        <path d="M218.33 498.26c8.62-10.24 22-28.18 23.86-32.36.21-.48 1.11-2.7 2.9-3.11a5.68 5.68 0 0 1 2.06.13c2.31.37 3.62.94 3.67.81s-3.21-1.79-5.52-3.11a49.37 49.37 0 0 1-9.53-7.27C225.53 444 207.62 430 187 405.89c-3.54-4.12-9.45-11.23-10.45-21.46a31.51 31.51 0 0 1 .29-8.25m-.21-5c-.75 2.63-1.76 6.2-3 10.44-2.15 7.65-4.51 16.16-7 25.37-3.05 11.27-4.58 16.91-4.72 17.66-1.43 7.57-1.37 15 4.67 42.1 2.22 9.94 3.87 16.35 5.13 20.83m84.47-22.69a62.23 62.23 0 0 0-8.22 4.59c-3.67 2.43-6 4-8.26 6.71-3.8 4.64-4.66 9.61-5.26 13a35.87 35.87 0 0 0-.32 10.6m-9.43-7.33a16.88 16.88 0 0 1 4.16 1.39 18.05 18.05 0 0 1 2.66 1.62c.56.41 1 .79 1.35 1.09m18.67-32.35l2.48 1M253 476.39a6.92 6.92 0 0 0-4 1.3 7 7 0 0 0-2.44 3.33 7.2 7.2 0 0 0 0 5.56 7.08 7.08 0 0 0 4.05 3.64 6.77 6.77 0 0 0 4.75 0 7.05 7.05 0 0 0 3.7-3.68 8.28 8.28 0 0 0 .61-5.68 5.87 5.87 0 0 0-2.73-4 4.71 4.71 0 0 0-2.24-.48" class="cls-2"/>
        <path d="M248.62 487.05a5.86 5.86 0 0 1-.59-5 5.54 5.54 0 0 1 2.49-2.83 5.79 5.79 0 0 1 5.45-.33 5.42 5.42 0 0 1 2.5 3.17M168.18 394a15.64 15.64 0 0 0-7.84 4.35A9 9 0 0 1 157 401c-1.66.7-2.89.46-4.26.54-2.16.12-3.34 1-7.32 3.36-3.35 2-7.46 4.5-11 6.28a79.68 79.68 0 0 1-7.94 3.34c-11.65 4.44-13.91 4.37-21.27 7.33a122.17 122.17 0 0 0-14.64 7.21c-3.25 1.8-6.22 3.59-8.91 5.29m78.34 2.89a118.74 118.74 0 0 0-14.81 3c-5.86 1.57-7.57 2.52-8.95 3.57-2.31 1.77-2.59 3-6.55 8.62-3.56 5.09-5.35 7.64-7.31 9.23a17.26 17.26 0 0 1-2.5 1.69m218.94-70.56a30.71 30.71 0 0 0 8.41 4.67c6.25 2.25 10.16 1.25 17.91 4.52.78.33 1.73.8 3.63 1.74 8.73 4.31 10.05 5.84 16.24 9 7.09 3.61 7.36 2.62 14.62 6.54 4.14 2.23 4.67 2.88 7.67 4.07 4.08 1.61 6.24 1.65 10.51 3.87 2 1 1.86 1.21 4 2.33.79.41 1.55.77 2.27 1.09m-74.94 5.21a77.6 77.6 0 0 0 10.2 6.87c4.49 2.52 5.93 2.72 10.72 5.71 2.19 1.37 2.26 1.56 7.24 4.81 3.19 2.08 4.78 3.13 6.75 4.3 1.31.78 2.48 1.48 3.62 2.13" class="cls-2"/>
        <path d="M238 387.14s.54.48 1 1a20.5 20.5 0 0 1 3.87 6.83 29.17 29.17 0 0 1 1.27 11.78m-13.54-33.51c-.5 5.06.78 7.89 2.06 9.54a8.69 8.69 0 0 0 .57.67m26.34 9.86a22.5 22.5 0 0 0-3 13.32c.24 3.89.47 8.76.71 15.39m-64.34-138.45a5.64 5.64 0 0 1-4.18.63 4.94 4.94 0 0 1-1.49-.7m-3.94 1.21a6 6 0 0 0-4.84.49m-1.65-9.54a8.63 8.63 0 0 0-2.08 3.88m-.34-3.59a3.84 3.84 0 0 1-1 1.81 4.1 4.1 0 0 1-3 1.19m3.87 3.83a22.28 22.28 0 0 0-1.13 2.23c-.28.64-.51 1.25-.7 1.82m80.27 16.5a9.2 9.2 0 0 1-.5 4.32m-2.85-3.65a6.65 6.65 0 0 0-.5 4.32m6.29-6.19a6.69 6.69 0 0 1 1.38 1.86 6.6 6.6 0 0 1 .48 1.26m8.22-2.84q1.2.69 2.47 1.38l2 1m-10.31-2.08l.55 1.76.55 1.76m2.22-2.62q.62 1.08 1.29 2.19l.73 1.18m2.88-6.78a21.25 21.25 0 0 0 1.89 1.29q.46.28.91.52m-15.57 4.38a6.82 6.82 0 0 1 .89 2.58 6.68 6.68 0 0 1 0 1.31m3.7-1.86a3.85 3.85 0 0 0 2.07 3m-16.7-2.91a8.74 8.74 0 0 1 .1 1.06 6.1 6.1 0 0 1 0 .94 4.63 4.63 0 0 1-.4 1.43m2.68-3.76a8.8 8.8 0 0 1 .12 3.19m3.06-2.69a16.81 16.81 0 0 0 .55 3.95m2.6-2.26c.05 1 .08 2 .07 3v.62m-87.25-42.78a5.53 5.53 0 0 1-4 2m19.27-11.54a14 14 0 0 1-6.11 1.38m-3.82 7.59l-2.55 2.28m-8.78 1.75a11.51 11.51 0 0 1-4.95 1.57m1.84-25.63l-2.46 2.29m2.72 1.3a4.19 4.19 0 0 0-2.45 1.87 3.58 3.58 0 0 0-.35.91m2.41.02a2.3 2.3 0 0 1 0 .83A3.33 3.33 0 0 1 155 260m1.93.33l-1.59 1.47m2.77-1.07a3 3 0 0 0-1.1 1.67m.3 1.06a2.54 2.54 0 0 0-.63.36 3 3 0 0 0-1 2m2.02.18a3 3 0 0 1-.39 1 3.17 3.17 0 0 1-1.65 1.28m3.4-5.03c-.34.37-.68.78-1 1.23l-.45.62m1.22 3.71a4.37 4.37 0 0 1-.32.43 4.82 4.82 0 0 1-2.28 1.46m2.42 1.1a13.68 13.68 0 0 0-2.55 2.7m5.31-3.14a4.14 4.14 0 0 0-1.58 1.09 4 4 0 0 0-.45.62m1.46 4.53a2.37 2.37 0 0 0-1.95.52 2 2 0 0 0-.52.8m1.8.98l-3.64.62m3.78 1.07a3.69 3.69 0 0 0-2.76.7m3.8 1.15a24.78 24.78 0 0 1-4 .38h-.71m5.98 1.07q-1.33.44-2.73.86l-1.34.39m2.56 1.3a9.73 9.73 0 0 0-2.55.45c-.27.09-.52.18-.76.28m4.49.83c-.82.1-1.45.21-1.88.3a3.31 3.31 0 0 0-.67.2 3.14 3.14 0 0 0-1 .65m3.26.97c-.67.12-1.37.28-2.09.46l-1 .27m4.18.92a7.46 7.46 0 0 0-3.15 1.44m3.62.15a5.77 5.77 0 0 0-2.19 1 6.34 6.34 0 0 1-1.39 1 3.28 3.28 0 0 1-.48.16m2.83-21.08a14.21 14.21 0 0 1-2 .59c-.49.1-1 .18-1.38.22m6.07-.94l-1.9 1.02m-.65 1.49l-.95.48q-.55.26-1.07.48m2 2.02a6.64 6.64 0 0 1-2.07 1.63m5.87-6.27a2.57 2.57 0 0 1-1.11 1.1 2.32 2.32 0 0 1-.42.16m.77 1.48a1.49 1.49 0 0 1-1.6 1m5.77.79a5.72 5.72 0 0 0-.74 1.49c-.1.3-.13.48-.27 1s-.3 1-.4 1.24m9.47-2.32a11.11 11.11 0 0 0-.86 1.57 6.42 6.42 0 0 0-.35.91 5.23 5.23 0 0 0-.2 1.66m7.58-8.6a11.17 11.17 0 0 1-4.1.67 10.81 10.81 0 0 1-1.25-.11m11.64 1.89l-3.34.35m.48 5.1l-2.26.46m3.32.73a24 24 0 0 1-3.85.84q-.69.09-1.34.14m10.71 2.13a4.3 4.3 0 0 0-2.67.11 3.9 3.9 0 0 0-.76.4m-16.77-3.16a8.66 8.66 0 0 0-1.64 2.64 8.54 8.54 0 0 0-.45 1.57m32.39-4.14a3.39 3.39 0 0 1-2.22 1.39 2.77 2.77 0 0 1-.75 0m.16 3.62a17.65 17.65 0 0 1-4.89.59m8.87.28a9.66 9.66 0 0 1-2.61 1.53 9.51 9.51 0 0 1-1.26.39m1.54 2.45a15.56 15.56 0 0 0-4.21 2.42m5.03 2.18a11 11 0 0 0-2.71 2.36m.88 1.77a14.43 14.43 0 0 0-4.47 2.66m5.57.78q-1.19.73-2.45 1.45l-1.85 1m7.52-.63a13.36 13.36 0 0 0-3.56 3.18m6.69-1.79c-.77.54-1.58 1.08-2.45 1.62s-1.65 1-2.45 1.45m4.92.35a16.4 16.4 0 0 1-3.61 1.43q-.52.14-1 .23m9.02-1.32a9.12 9.12 0 0 1-1.3 2.56 16.75 16.75 0 0 1-1.11 1.31c-.47.52-.89.93-1.19 1.23m31.6-9.05a12.28 12.28 0 0 0-3 2.53m-2.25 1.53l-3.19 1.1m-4.67.41a23.6 23.6 0 0 1-3.7 1.51l-1.09.31m-2.66-.13l-2.46 1.95m-4.21-2.16a4.12 4.12 0 0 1-1 2.31 4 4 0 0 1-1.27 1m3.99-1.45a23.31 23.31 0 0 1-1.88 2.38c-.37.41-.74.79-1.11 1.15m4.13-2.5a2.88 2.88 0 0 1-1.82 3.55m9.08-3.91a10.5 10.5 0 0 0-2.78 1.53c-.24.19-.47.38-.68.57m-31.86-32.55c-1.66.71-2.07 1.34-2.12 1.79a4 4 0 0 1-.1.83 3.11 3.11 0 0 1-.52 1.07m3.41 4.66a21.9 21.9 0 0 0-2.71 2.36c-.4.42-.77.83-1.11 1.23m-15.06 6.95c-.31.22-.76.55-1.27 1a12.83 12.83 0 0 0-2.21 2.12m-.37-10.94c-.94.9-1.92 1.91-2.89 3l-.55.64m13.05 12.38a17.88 17.88 0 0 1-1.95 1.55c-.82.56-1.31.8-2 1.21m1.72-3.11a8.82 8.82 0 0 1-2.27 1.14m1.36-2.54l-.44.05a3.57 3.57 0 0 0-1 .17 1.25 1.25 0 0 0-.57.61m-.15-2.06a2.66 2.66 0 0 0-1.14.67 2.56 2.56 0 0 0-.38.49m.43-2.87l-1.39.91m-1.34-5.21l-1 1.23m.74-3.8l-1.91 1.64m-.28-1.62a8.09 8.09 0 0 1 3-1.5m-4.99-2.23c.39-.44.82-.9 1.28-1.35l.57-.55m-.77-5.08c-.66.14-1.35.28-2.07.4s-1.32.2-1.94.27m1.21 1.46a11.8 11.8 0 0 1 3.69-.11m-2.24 2.39l1.71-.9m-1.81-12.73c.41-.34.84-.7 1.27-1.1s.57-.53.83-.8m5.24.42l-.41 1.87m-4.33 1.23l-2.14.65m2.04 1.03l-1.57.53m5.46-1.45l-1 1.54m-.29-2.94l-.83.67-.76.67M279.1 256.3a9.68 9.68 0 0 1 1 1.14c.33.45.48.74 1 1.46.23.33.42.59.55.76m-1.11 2.73a19.76 19.76 0 0 1 1.73 1.1c.42.3.81.6 1.17.9m8.85 1.48a3.55 3.55 0 0 0 1.32 2.71 2.59 2.59 0 0 0 .68.33m-6.57-2.82l.21 2v.69a7.23 7.23 0 0 1-.09 1.31m13.35 1.77q4 3.35 3.76 3.66-.11.15-1.24-.44m-1.53 5.92a21 21 0 0 0 8.29 1.28m-35.89-21.78a2.06 2.06 0 0 1 .32.46 3.25 3.25 0 0 1 .22 1.55c0 .32 0 .79.06 1.38m-93.7 62.59a4.58 4.58 0 0 0-2.35 1.86m3.11-.87a4.06 4.06 0 0 1-.49 1.15 4.11 4.11 0 0 1-1.34 1.32m3.38-.32a2.51 2.51 0 0 0-1.42.88c-.27.36-.28.63-.55 1.08a3.48 3.48 0 0 1-1.08 1.1m4.12 6.47a14.39 14.39 0 0 1 1.88-1.68c1.37-1 2.46-1.45 3.09-2.72a3.86 3.86 0 0 0 .26-.71m-7.88-.47a24 24 0 0 0 2.29-2q.5-.5.94-1m-.84 4.09a3.23 3.23 0 0 0 1.28-1.48 2.86 2.86 0 0 0 .13-.41m-.13 2.75a13.65 13.65 0 0 1 .9-1.32c.24-.32.49-.6.73-.86m-1.38-4.44a1.75 1.75 0 0 0 1.21-2.14m2.83-1.99a3.64 3.64 0 0 1 .48-1.12 3.72 3.72 0 0 1 1.48-1.3m-4.4 8.98a7.47 7.47 0 0 1 2.29-2.14m-.2-2.14a8 8 0 0 1 1.2-.85 8.15 8.15 0 0 1 2.58-.95m.86-2.54a3.6 3.6 0 0 0 2.08-.65 3.48 3.48 0 0 0 .83-.86 3.33 3.33 0 0 0 .39-.8M190 331.68l2.1-1.71m11.16-9.47a7.36 7.36 0 0 1-4.11 2.48m-2.21.96l-1 1.17-1.28 1.6m-1.09.04a2.84 2.84 0 0 0-.16 1.68 2.8 2.8 0 0 0 .54 1.14m-1.8 2.78a4.31 4.31 0 0 0 3-1.44 3.57 3.57 0 0 0 .52-.86m-2.67 3.44l-1.42 2.1m.54 1.41a10.47 10.47 0 0 1-1.93 2.9c-.23.25-.47.47-.7.67m7.57-13.25a8.36 8.36 0 0 1 3.87-2.86m4.18-2.86a14.88 14.88 0 0 0-2.81 3.4m6.1-2.14A19.25 19.25 0 0 1 205 325m-6 3.74c.81-.48 1.67-.94 2.59-1.39l.63-.3m3.99-.74a7.55 7.55 0 0 1-2.86 2.19m4.43.41a10.12 10.12 0 0 1 3.62-2.91m-2.93-.33a2.83 2.83 0 0 0 1.23-1.91 2.59 2.59 0 0 0-.16-1.25m-3.1-1.6l1.81-1.34m7.4.24a3.28 3.28 0 0 0 .9-1.42 3.21 3.21 0 0 0 .14-1M195 335.09a6.79 6.79 0 0 1 1.62-2.66 6.7 6.7 0 0 1 1.65-1.22m-3.35 6.51a15.1 15.1 0 0 1-2.84 4.51m2.85-1.7q3-2.36 2.86-2.51s-.22 0-.57.24m-.65-1.82a3.77 3.77 0 0 1 1.48-1.91 3.41 3.41 0 0 1 .76-.36m3.26-3.81l-2.79 2m1.04 4.28a5.87 5.87 0 0 0 3.52-.81 5.58 5.58 0 0 0 1.4-1.22m1.29 6.96a5.53 5.53 0 0 0 4.35-2.1m-2.02-5.17a4.78 4.78 0 0 0 3.33-.81 4.63 4.63 0 0 0 1.54-1.91m-4.8-.52a7.34 7.34 0 0 1 3.49-2.81 6.42 6.42 0 0 1 .82-.23m1.53 7.78a6.71 6.71 0 0 0 2.82-3.38m-19.22 9.93l2.71-2.11m-6.68 3.09a5.45 5.45 0 0 1 3.36-2.37m.18 5.04a5.91 5.91 0 0 0 2.09-1.4c.12-.14.35-.42.58-.74a11.07 11.07 0 0 0 .61-1m.52 3.93a7.14 7.14 0 0 1 2.73-2.13M204 348a6.28 6.28 0 0 0 2.85-1.88 5.91 5.91 0 0 0 .71-1m-5.47-3.12l2.05-2.65" class="cls-3"/>
        <path d="M215.81 330.69a11.61 11.61 0 0 1 4.07-3.3m3.47 4.61a22.46 22.46 0 0 0-3.19 3.31q-.41.53-.77 1m-5.13 6.35a6.84 6.84 0 0 1 1.5-2.91 6.5 6.5 0 0 1 .76-.74m-3.16 4.99a5.37 5.37 0 0 1-.8 2.3 5.31 5.31 0 0 1-1.15 1.29m-5.28 1.73a5.11 5.11 0 0 0 2.55-2.7m-2.24 6.02a4.38 4.38 0 0 1 1.47-1.85 4.12 4.12 0 0 1 .76-.42m1.61.97a9.39 9.39 0 0 0 1.91-2m-1.02 4.45a7.63 7.63 0 0 0 1.58-1.13 3 3 0 0 0 .51-.58 2.86 2.86 0 0 0 .43-1.15m-8.95-8.45a8.29 8.29 0 0 1 1.52-3m4.05-6.81l1.28-1.6m2.78-1.49a3.89 3.89 0 0 0 .27-3" class="cls-4"/>
        <path d="M219.77 339.15a5.42 5.42 0 0 1-1.17 2.23 5.32 5.32 0 0 1-1.14 1m.21 2.04a5.11 5.11 0 0 1-4.88 3.53m2.41 4.17a8.69 8.69 0 0 1 1.8-2.78 8.47 8.47 0 0 1 .89-.8m-2.59 4.83a9.28 9.28 0 0 1-4.18 2.67m5.06.54a6.8 6.8 0 0 1 2.24-2.46 6.35 6.35 0 0 1 .76-.42m-.18 2.5a3.19 3.19 0 0 1-.2.5 4.17 4.17 0 0 1-2.48 2m1.96-7.46a3.61 3.61 0 0 1 2.74-2.7m12.81-28a8 8 0 0 1-3.28 1.37 7.59 7.59 0 0 1-1.13.1m-.84-1.57l-2.16 1.56m.09 2a15.33 15.33 0 0 1-2.65 1.39l-.63.24m-1.57-.14a3.14 3.14 0 0 1 .21 2.07 3 3 0 0 1-.65 1.24m-.89.79a14.54 14.54 0 0 1-.76 3.67m-3.07 3.95l1.29-2.1m4.21 3.02a17.39 17.39 0 0 1 4.14-4m-4.08 6.06a21.72 21.72 0 0 1-.75 3.17c-.21.65-.43 1.25-.66 1.8m1.25 6.4a9.54 9.54 0 0 0 1.28-4.73m-1.64 7.29l2-1.77m-2.17 4.08a10 10 0 0 1-1.46 4.22m3.15-1.31a5.33 5.33 0 0 1 1.26-3.54 4.8 4.8 0 0 1 1.21-1m15.77-38.07a11.3 11.3 0 0 1-4.7 1.66m4.9-3.57a9.53 9.53 0 0 1 3.69-1m-13.88 6.51a2.29 2.29 0 0 0 1.44-1.31 1.88 1.88 0 0 0 .1-.75m-5.32 7.73a3 3 0 0 1 1.58-1.89 2.54 2.54 0 0 1 1.09-.19m-4.59 2.46a3.53 3.53 0 0 1-1.17 2.35 3.39 3.39 0 0 1-1.64.76m3.11 2.4a2.27 2.27 0 0 1 .59-2.28 2 2 0 0 1 1.09-.48m1.49-1.35a3.67 3.67 0 0 0 1.48-1.26 3.55 3.55 0 0 0 .43-.91M224 341.4a4.62 4.62 0 0 1 2.16-3.79m-2.84 7.77a4.9 4.9 0 0 0 1.7-1.76 4.72 4.72 0 0 0 .44-1.07m-.64 6.86a7.09 7.09 0 0 1 1.44-3.39m-.93 13.53l.58-1.7c0-.08.08-.22.13-.41a9.11 9.11 0 0 0 .23-1m-1.06-3.44a11.39 11.39 0 0 1 2.56-3m-1.55 10.94a5.7 5.7 0 0 0 1.38-2.31 5.64 5.64 0 0 0 .24-1.83m1.46 4.5a2.66 2.66 0 0 1 .41-1.74 2.62 2.62 0 0 1 1.1-.94m.76 3.47a4.91 4.91 0 0 0 2.18-2.83 4.45 4.45 0 0 0 .12-1.62m1.82 4.78a2.22 2.22 0 0 1 .49-1.45c.08-.1.34-.37 1.56-.84.58-.23 1.08-.38 1.43-.47m-3.72.21a8 8 0 0 0 .65-3.61 7.85 7.85 0 0 0-.34-1.88m-6.05 2.76c0-.15-.48-2.23.82-3.4a2.66 2.66 0 0 1 1-.56m-4.19 1.53a6.58 6.58 0 0 0 1.72-4.59m1.75-19.01a12.27 12.27 0 0 0 2.72-4.57m-.79-1.83a3.48 3.48 0 0 1 2.35-1.83 3 3 0 0 1 1.31.09m-.26-2.69a4.21 4.21 0 0 0 2.74.37 4.16 4.16 0 0 0 2-1.09m1.69-1.66a12.35 12.35 0 0 1 2.67-2.45m3.18-2.81c0 .24.13 2.11 1.45 2.78a2.09 2.09 0 0 0 .62.2m-3.05-.69a2.55 2.55 0 0 1-.5 2.93 1.79 1.79 0 0 1-1 .36m-10.74 8.91a3.21 3.21 0 0 1 1-2 3.12 3.12 0 0 1 1.51-.72m-8.64 5.98a7.63 7.63 0 0 0-1.08 4.1m1.88-.49a3 3 0 0 1-.3 2.74 2.39 2.39 0 0 1-1.08.73m-.8-.67a9.61 9.61 0 0 0 0 5.56m1.31-.97a3.93 3.93 0 0 1-.5 3 3.65 3.65 0 0 1-1.27 1.16m2.36-.15a14.81 14.81 0 0 1-1.63 3.22m2.11-8.96c.15-.43.32-.89.53-1.36a16.73 16.73 0 0 1 1.1-2.1m.19-3.2a6.57 6.57 0 0 1 3.17-2.31m-2.94 9.64c-.07.82-.11 1.7-.11 2.62v1.63m-.49 1.24c-.17.69-.37 1.42-.61 2.18q-.19.61-.4 1.18m.49 2.06a3.25 3.25 0 0 0 2.4-1.39 2.39 2.39 0 0 0 .26-.68m-.96 6.17c-.06-1 .2-1.45.47-1.68s.67-.26 1.39-.72a5.73 5.73 0 0 0 .51-.37m2.98 1.04a12.55 12.55 0 0 0 .7-3.92m10.45-32.18a3.11 3.11 0 0 0 .2 2.75 2.62 2.62 0 0 0 1 .85m-7.57-1.56a3.85 3.85 0 0 1-2 3.63m-1.11 1.9a10.27 10.27 0 0 0-.81 2.9m-1.69 1.13a5.24 5.24 0 0 1-.59 4.57m-2.83-.22l.27 3.09m2.01-.29a4 4 0 0 1-1 3 3.44 3.44 0 0 1-1 .73m1.57 1.09a9.81 9.81 0 0 1-1.32 3.56m-.28 1.41c.32.67.69 1.37 1.13 2.11q.29.49.59.94m.48 1.9a4.83 4.83 0 0 0 1-1.77 4.73 4.73 0 0 0 .19-1m.49 8.4a4.88 4.88 0 0 1 1.49-1.68 4.81 4.81 0 0 1 1.3-.64m-.29 2.33a5.6 5.6 0 0 1 .23 3.38m-.31 2.7a13.76 13.76 0 0 1 2.45-1.79q.43-.24.84-.44m.55 1.97a11.13 11.13 0 0 0 1.77-3.34q.13-.4.22-.79m.21 4.76a6 6 0 0 0 1.29-1.89 5.9 5.9 0 0 0 .4-1.41m.8 3.81a10.51 10.51 0 0 0 3-3.94m.42 3.67a3.3 3.3 0 0 0 2.4-1 3 3 0 0 0 .61-1.11m-9.93-39.95l1.31 1.11 1.06.94m4.35-8.92a12.56 12.56 0 0 0 1.28 2.78m4.25-4.34a6.1 6.1 0 0 0 2 2.21 5.87 5.87 0 0 0 1.15.61m-4.84-1.52a5 5 0 0 1 1.2 2.36 4.93 4.93 0 0 1 .05 1.67m-14.88 6.62l-.39 2.91m2.67-4.61a4.64 4.64 0 0 0 1.7 2.62m4.9-7.33l1.34 3.86m2.22-3.04a6.33 6.33 0 0 1-.22 2.5 6.19 6.19 0 0 1-.35.91m2.56-2.61a17.94 17.94 0 0 1 3.46 2.07m-3.67-.07a1.83 1.83 0 0 1 .62 2.18 1.81 1.81 0 0 1-1.6 1.05m-1.98-1.13a3.47 3.47 0 0 0 .36 3 2.58 2.58 0 0 0 .66.6m-15.25 3.79a3.65 3.65 0 0 1 3.71-2.34m-4.94 5.73a4.17 4.17 0 0 0 2.21 2m-2.02 1a25 25 0 0 1 0 2.5c0 .58-.06 1.14-.12 1.66m-1.28 3.57q1-.77 1.95-1.63l1.1-1m-.34 4.43a5.43 5.43 0 0 0 2.56-2.87 5 5 0 0 0 .29-1.91m-1.4 9.6a15.11 15.11 0 0 1 1-2c.2-.32.4-.63.6-.91m.12 6.49a8.79 8.79 0 0 1 2.39-2.75m-1.72 4.64l2.76-2.57m1.49 2.57a6.88 6.88 0 0 0 1.58-3.8 6.34 6.34 0 0 0-.06-1.42m.92 6.52a5.16 5.16 0 0 1 .85-2.94 4.88 4.88 0 0 1 1-1.06m-7.99-3.87a7.26 7.26 0 0 1 1.24-2.66 7.11 7.11 0 0 1 1-1m-3.3-1.05a11.36 11.36 0 0 0 1.88-3.59m-3.7-2.26a3.7 3.7 0 0 1 .21-2.56 2.74 2.74 0 0 1 .93-1m-1.83-2.65a4.33 4.33 0 0 0 1-2.29 4.13 4.13 0 0 0 0-1.25m2.01-.02v3.93m1.49-6.53a6.82 6.82 0 0 0 1.69 3m-1.49 2.44l.13 2.75m-1.76.61a16 16 0 0 1 .59 1.89c.13.51.22 1 .28 1.44m1.76-.1a13 13 0 0 1 1.45-3.66m-.58-7.83l1.23-2.23m.88-4.17a3.18 3.18 0 0 0 1.59 2 2.8 2.8 0 0 0 1.18.27m-1.91 1.69l.13 2.57m2.04-1.78a5.64 5.64 0 0 0 1.07 3m-4.21-.37a5.62 5.62 0 0 1-.21.93 5.89 5.89 0 0 1-1.29 2.22m.94 1.03c.08.2.18.41.3.63a7.3 7.3 0 0 0 1.28 1.71m.98-6.48a4.8 4.8 0 0 0-.26 3.5 4.36 4.36 0 0 0 .79 1.39m-5.44 7.51a3.12 3.12 0 0 0 2.59-1.32 2.63 2.63 0 0 0 .34-1.49m-1.45 5.8a4.85 4.85 0 0 0 3-2.36 4 4 0 0 0 .36-1.16m-2.53 8.04l2.22-2.79m1.58-8.06a6.24 6.24 0 0 1 1.64-2.8 6 6 0 0 1 1.18-.89m-2.25 8.71c0 .72.11 1.47.21 2.25s.18 1.37.29 2m80.53-91.97a2.2 2.2 0 0 0 2 .73m-1.8.84l1.67.72M333 259l2.59 1.61m-2.92.03a4.33 4.33 0 0 0 2.7 2.47m-6.56 3.29a4.26 4.26 0 0 0 3.54-1.76m1.17-.56l2 1.54m-3.65 1.72a7.54 7.54 0 0 1 3.5.24m-4.75 3.82a19.88 19.88 0 0 1 3.56.32c.63.12 1.22.25 1.76.41m-24.36 1.56a13.92 13.92 0 0 0 4.46 2.09 13.74 13.74 0 0 0 2.62.43m-5.84 4.38a13 13 0 0 1 4.21 2m4.2-3.84a5.78 5.78 0 0 0 1.39-1 4.32 4.32 0 0 0 1.56-2.84 3.41 3.41 0 0 0-.22-1.38m6.37.15l2.38-.2m-.71 1.86a2.76 2.76 0 0 1 2.44.11 2.22 2.22 0 0 1 .67.7m-2.78.85l2.43.49m-4.06-.42a6.48 6.48 0 0 0 3.83 2.14m-5.33.89l1.61.53c1.21.42 2.34.86 3.41 1.32m-3.09 1.75a2.13 2.13 0 0 1 2.62.43 1.42 1.42 0 0 1 .17 1m-6.21-.39a2 2 0 0 0 1.27 1.1 1.89 1.89 0 0 0 1 0m1.18-.45a23.48 23.48 0 0 0 2.23 1l.93.33m-3.7.66a2 2 0 0 0 1.79 1.35 1.51 1.51 0 0 0 .75-.24m-3.21 1.56a3.48 3.48 0 0 1 3 .93 2.56 2.56 0 0 1 .48.88m-4.91.54c.32 0 .65.12 1 .21a10.51 10.51 0 0 1 2.79 1.18m-3.58.8a4 4 0 0 0 2.85 1.09m-3.89 1.02a4.87 4.87 0 0 1 2.61 1l.8.7m-3.26.11l2 1.41m-2.28.4a3.28 3.28 0 0 1 2.16 1.23 2.76 2.76 0 0 1 .36.69m-3.83.68a5.08 5.08 0 0 0 2.42.86m-2.96 1.51a4.53 4.53 0 0 1 2.42 1.11m-4.52.66a9.46 9.46 0 0 1 3.28 1.5m-4.89.84c.36 0 3.06 0 4.09 1.77a2.78 2.78 0 0 1 .3.76m-6.57.07a3.92 3.92 0 0 1 2.94-.25 3.83 3.83 0 0 1 1.91 1.41m-26.3-29.27c1.27.07 2.6.1 4 .08l1.67-.05m7.32.97a5.42 5.42 0 0 1 2.22 1.29 5.26 5.26 0 0 1 .81 1m-14.93.56a6.5 6.5 0 0 0 3.47 1.57 6.27 6.27 0 0 0 2.17-.12m-3.86-2.83a8.38 8.38 0 0 1 3.66.24 8.16 8.16 0 0 1 1.65.7m-7.31 3.52a5.85 5.85 0 0 0 2.47 1.63 5.65 5.65 0 0 0 1.41.28m-2.46 1.79a17.32 17.32 0 0 1 2.3 1.55c.32.26.62.51.9.77m-4.51.82a9.68 9.68 0 0 0 5.11 2.77m1.61-5.55l2.44 3.22m5.42-8.57c.2.88.38 1.8.53 2.76q.08.51.15 1m6.5-8.54a4.63 4.63 0 0 1 .89 1.6 4.72 4.72 0 0 1 0 2.67m-1.6 2.14a11.51 11.51 0 0 1 1.84 3.7m-5.6.97a7 7 0 0 1 .14 5.5m-2.37-2.04c-.05.67-.12 1.36-.21 2.08-.17 1.37-.4 2.64-.66 3.82m.21 2.17a3.34 3.34 0 0 1-.45 1.91 8.86 8.86 0 0 1-1 1.23m7.57-5.02a6.64 6.64 0 0 1 5.11-1.32m-6.79 5.23l2.63-.45m-5.22-1.54l3.44.07h.81m-.79-4.13a20.52 20.52 0 0 0 3.7-.55c.44-.11.86-.23 1.26-.35m-3.02-2.69a9.48 9.48 0 0 1 3 .81 9.24 9.24 0 0 1 .87.45m-28.09.52a6.9 6.9 0 0 1 1.9.7c.62.34 3.27 2.7 2.54 2.05m1.66-1.88a5.63 5.63 0 0 1 2 1.16 5.56 5.56 0 0 1 .92 1.08M324.51 293a3.29 3.29 0 0 1 2.19-.08 3 3 0 0 1 .87.45m-2.57-3.79l3.08-.69m-.89-1.77q.7.39 1.42.84l.8.52m-6.29 8.52q1.24-.52 2.58-1l1.51-.53m-5.79 2.23a6 6 0 0 0 3.91 1.2 5.07 5.07 0 0 0 .94-.17m-10.42 5.36a8.52 8.52 0 0 1 2.67-2.26 8.2 8.2 0 0 1 1.07-.48m-.59-6.82a3.81 3.81 0 0 1 .49 3.82m-25.93 5.78a1.87 1.87 0 0 0 .39 1.34 1.94 1.94 0 0 0 2.05.53m2.3-1.44a4 4 0 0 1 1.64 1.45 3.9 3.9 0 0 1 .55 1.51m-4.49 1.83a4 4 0 0 0 3 1 4 4 0 0 0 2.53-1.28m4.9-2.35a4.77 4.77 0 0 1-.3 2.33 4.63 4.63 0 0 1-.6 1.07m.55-11.49l1 2.94m-7.19 11.1a5 5 0 0 1 1 1.77 5 5 0 0 1 0 2.75m-5.46-4.5a4.82 4.82 0 0 0 2.57 2.74m-21.11 2.27a6.31 6.31 0 0 0 5.1 1.48m10.01-5.06a3.59 3.59 0 0 1 1.53 1.59 3.38 3.38 0 0 1 .29 1m14.04-.4a11 11 0 0 1 .78 1.64 3.84 3.84 0 0 0 .66 1.39 2.35 2.35 0 0 0 1 .65m-7.05-7.77a5.26 5.26 0 0 1 1.32 2.9 4.86 4.86 0 0 1 0 1.19m11.59-2.21a4.86 4.86 0 0 1 2.51-.39 4.73 4.73 0 0 1 1.43.4m-4.92 1.89a4.15 4.15 0 0 1 .32 2.82 11 11 0 0 1-.91 2m3.33-4.25a5.2 5.2 0 0 0 3.4-1.31 4.62 4.62 0 0 0 .83-1M312 326.39a4.58 4.58 0 0 1 3.11-2.25 4.1 4.1 0 0 1 2.06.23m-2.17-2.6a6.7 6.7 0 0 0 3.61.95m-1.77-2.11a2.66 2.66 0 0 1 1.71-1.22 2.6 2.6 0 0 1 1.74.28m-3.02-1.99a7 7 0 0 0 4.5 0m-13.87 3.2a4.79 4.79 0 0 1 2 1.54 4.65 4.65 0 0 1 .66 1.26m1.19-4.68a4.06 4.06 0 0 0 .26 2.69 3.82 3.82 0 0 0 .85 1.14M299 317.64a11.52 11.52 0 0 0 1.63 3.16m10.37 6.39a4.68 4.68 0 0 1 2.72 1.62m-6.92-6.39l2.44 2.86m1.39-.28a9.31 9.31 0 0 0-1.22 4.73m-2.83-5.38a4.55 4.55 0 0 1 1.27 2.21 4.49 4.49 0 0 1 0 1.94m-3.08 4.94a10.29 10.29 0 0 1 .61-2.49c.08-.22.17-.42.26-.62m4.92-17.78a8.92 8.92 0 0 1 2.18 3.79m1.55-2.47a4.69 4.69 0 0 0 1.6-5.14m-19.15 11.38a7.45 7.45 0 0 0 2 3.79m1.7-1.21l1.56 3.61m-12.25-10.91a17.73 17.73 0 0 1 1.88 2.12c.37.5.69 1 1 1.44m.01 2.25a4.07 4.07 0 0 1 2.59 4.05m-5.45-7.11a4.37 4.37 0 0 0-.45 1.82 2.86 2.86 0 0 0 .15 1.09 2.7 2.7 0 0 0 .65 1m8.25 3.76l2.45 2.72m1.17-10.4a15.56 15.56 0 0 1 4.11 3m-2.31.54a9.65 9.65 0 0 0 .26 3.59 9.39 9.39 0 0 0 .47 1.34m1.09 1.86a7.14 7.14 0 0 1 2.12 3.54m-4.85-1.35a17.56 17.56 0 0 0 1 5.77m2.77-3.32l1.26 2.59m.49-5.93a4.5 4.5 0 0 0 2.07 3m-28.87-10.11a11 11 0 0 0 5.13 1.93m-1.3-3.08c.6.27 1.25.59 1.92 1 .49.28.94.56 1.36.84m-5.14-5.82a4.38 4.38 0 0 0 4.1 1.52m4.02 5.27l2.58 2.43m10.9 8.21a5.75 5.75 0 0 0 1.75 3m-4.47-1.24a3.84 3.84 0 0 1 .28 1.51 3.45 3.45 0 0 0 0 .81c.08.35.36.8 1.29 1.21m-6.53-12.01l2.18 3.48m3.66-4.8a5.08 5.08 0 0 1-.15 1.25 5.42 5.42 0 0 1-1.62 2.66m-41.28-13.51c.35.47.72.95 1.14 1.44s.66.76 1 1.1m.83-5.06l2.3 1.63m2.02-1.21a4.64 4.64 0 0 1 1.85 3.29m2.22-2.21a21.14 21.14 0 0 0 3.84 3.83m-11.62-2.57a8.11 8.11 0 0 1 1.12 2.19 8 8 0 0 1 .31 1.26m12.86-.92l1.21 2m-7.71-2.08l1 1.94m-4.92-2.06a10.81 10.81 0 0 1 2.77 3.47m5.79-2.14a11.32 11.32 0 0 0 .5 4.09m11.82.99a7 7 0 0 0 4.38 1.84m2 2.93a8.48 8.48 0 0 1 3.58 2.51m1.68.43l-.08 4.31m-2.72-1.57a11.19 11.19 0 0 0 .66 1.64 3.56 3.56 0 0 0 .73 1.08 3 3 0 0 0 .49.38m-19.9-14.96l4.06 3.46m7.22 4.39l2.11 3.73m-27.62-12.99l3.68 3.82m-5.89-.63a14.15 14.15 0 0 0 2.29 2.09 7.69 7.69 0 0 0 2 1m-5.11-7.96a4 4 0 0 1 .88 3.08m-3.23-.81c.16.72.37 1.5.64 2.33a25.09 25.09 0 0 0 1 2.46m10.05-4.85a9.55 9.55 0 0 1-.81 3.11m2.36-2.79a12 12 0 0 0 3.81 3.51m2.69-.07a8.14 8.14 0 0 1 2 4.17m4.33-5.17a8 8 0 0 0 2.69 3 7.35 7.35 0 0 0 .68.39m-4.75.08a8.73 8.73 0 0 1 2 1.54 2.52 2.52 0 0 1 .61.95 2.33 2.33 0 0 1 .11.94m5.51-2.33a5.92 5.92 0 0 1 2.37 3.3 5.3 5.3 0 0 1 .16 1.5m13.95-29.23a9.07 9.07 0 0 0-.88 6.67m1.2-12.96c.14.66.32 1.36.54 2.09s.41 1.28.63 1.85m2.18-8.96a17.8 17.8 0 0 1-.12 1.83c-.05.44-.12.86-.19 1.25m-55.65 29.27a4.29 4.29 0 0 1 .66 1.51 4.4 4.4 0 0 1-.15 2.36c-.06.16-.11.3-.15.39m12.43-3.2a9.94 9.94 0 0 1 1.21 1.9 4.22 4.22 0 0 1 .53 1.7 3.34 3.34 0 0 1-.15 1.12m1.63-6.28q.32.74.72 1.51c.47.93 1 1.77 1.45 2.53m2.22-1.89a4.83 4.83 0 0 1-.14 3.69 3.85 3.85 0 0 1-.45.68m-16.43-3.14c.19.73.37 1.53.52 2.39.12.7.21 1.37.27 2m-6.73-4.26c.33.58.71 1.2 1.15 1.84s.9 1.25 1.34 1.78m-2.01 3.33a7.74 7.74 0 0 1-.9 4.55m10.39-11.3l2 5.12m18.02-1.4l3.08 4.56m-7.73-5.43a5.85 5.85 0 0 0 1.59 4 5.1 5.1 0 0 0 1.32.94m5.81-3.24a6.28 6.28 0 0 1 2.69 3.14 6.07 6.07 0 0 1 .36 2.67m1.98-3.51a4.23 4.23 0 0 0 1.61 3.12 3.3 3.3 0 0 0 .91.43m-37.68 21.57a3.34 3.34 0 0 1-.62-2.6 2.87 2.87 0 0 1 .44-1m2.87-.27a4 4 0 0 1 .38 1.76 4.09 4.09 0 0 1-.71 2.24m3.22-4.19c.08.48.16 1 .22 1.5.12 1 .18 1.9.2 2.75m1.91-4.21a13.74 13.74 0 0 1 .38 1.92 19.93 19.93 0 0 0 .28 2.67 5.64 5.64 0 0 0 1 1.94m3.74-5.75a4.41 4.41 0 0 1 1.3 1.53 4.58 4.58 0 0 1 .36 3.09m-19.14-5.72l-.32-4.76m-1.24-.6c-.09-.43-.39-2 .47-2.91a5.28 5.28 0 0 1 1.43-.89 9.3 9.3 0 0 1 1.18-.48m.43-4.82a6.48 6.48 0 0 1 1.71 6.53m-1.68.72a5.75 5.75 0 0 1 1.6 3.37 5.36 5.36 0 0 1-.12 1.75m1.96 2.12a4.06 4.06 0 0 1 .47-2.74 4 4 0 0 1 1.53-1.47m2.12 2.2a4.31 4.31 0 0 0 .41-3.83 4.16 4.16 0 0 0-2.29-2.21m-1.8.05c.12-.66.27-1.35.46-2.07s.46-1.66.71-2.4m-2.41-2.13a3.73 3.73 0 0 1-1.36-2.69 3.25 3.25 0 0 1 .28-1.33m-.59-4.27l3.59 3.9m1.23-3.3a10.89 10.89 0 0 1 .55 5.76m5.6-9.06c0 .11-.71 2.59.76 3.93a2.79 2.79 0 0 0 1.07.6m3.06-2.85a7.43 7.43 0 0 1-1.13 6.56m-6.71-2.38l1.18 3.44m-4.11 1.75a4.82 4.82 0 0 1 2.47 1.8 4.71 4.71 0 0 1 .79 2m10.4-11.95l3.59 3.74m-11.24-.47a11.8 11.8 0 0 1 1.31 5.28 11.23 11.23 0 0 1-.12 1.66m-1.97-1.2a11.73 11.73 0 0 1-.28 5.58m-1.26.8a5.3 5.3 0 0 0 1 2.19 5.4 5.4 0 0 0 2.8 1.81m6.46-16.96a5.3 5.3 0 0 1 1.35 3.28 5 5 0 0 1-.29 1.83m7.59-4.53a12.17 12.17 0 0 0 1.17 4.27m-13.82-.68a4.16 4.16 0 0 1 1.36 2.94 3.92 3.92 0 0 1-.54 2m-2.76.44a6.36 6.36 0 0 0 3 3.48 5.44 5.44 0 0 0 1.33.44m6.48-10.54a6.17 6.17 0 0 0 .57 2.57 2.17 2.17 0 0 1 .29.94 2.27 2.27 0 0 1-.59 1.49m-5.03.9a10.15 10.15 0 0 1 1 4.71 9.61 9.61 0 0 1-.15 1.43m-2.77-.52a9 9 0 0 0 .37 3.51c.18.57.71 2 .71 2m-4.63-6.05a5.31 5.31 0 0 1 1.25 3.4 4.77 4.77 0 0 1-.21 1.31m7.94-10.03l3.71 5.45m-3.13.12a9.1 9.1 0 0 1 .3 3.69 8.84 8.84 0 0 1-.34 1.56m4.55-12.03a4.76 4.76 0 0 0 2.91 4.81m.11-9.13a17.12 17.12 0 0 1 .33 5.7m3.37-3.19a7 7 0 0 0 1.51 2.47 6.92 6.92 0 0 0 1.23 1m-.02-5.1a3.79 3.79 0 0 1 2.28 1.86 7.33 7.33 0 0 0 .66 1.45 4.77 4.77 0 0 0 1 1.08m-.47-5.83a5.2 5.2 0 0 0 2 2.29 5 5 0 0 0 1.61.66m-10 3.87a5.83 5.83 0 0 0 3.5 3.19m-8.69.14a10.9 10.9 0 0 1 3 4.12m-10.98 1.42a4.47 4.47 0 0 0 2 4.85m-10.43 1.04a32.92 32.92 0 0 1-2.42-4.11c-.39-.78-.72-1.54-1-2.27m16.33-1.66a9 9 0 0 0 2.48 4.4m-116.82-64.8a2.63 2.63 0 0 0 1.14-.85 2.56 2.56 0 0 0 .39-.74m-3.76-.6l-.46.28-.76.49m2.07.83a2.08 2.08 0 0 1-.94 1.07 2 2 0 0 1-.92.23m.67 2.01a1.25 1.25 0 0 1 .43-.74 1.17 1.17 0 0 1 .38-.2m3.02-1.03a3.4 3.4 0 0 0-.93.77 3.34 3.34 0 0 0-.34.49m-.18 2.26a2.21 2.21 0 0 1 1.81-1m-2.77 3.6a1 1 0 0 1-.22.75 1 1 0 0 1-.8.32m9.54-4.13q-.3.59-.59 1.24c-.25.56-.47 1.1-.66 1.61m5.34-4.62a12 12 0 0 0-.6 2c-.06.28-.11.55-.14.81m-1.37 3.02a7.69 7.69 0 0 1-.74 2.86 7.44 7.44 0 0 1-.45.8m1.51.03l-.62 3.11m-1.38.36l.16 1.63m.98-.49a3.38 3.38 0 0 0-.11 2.56 2.81 2.81 0 0 0 .36.63m1.38.03a2.59 2.59 0 0 1-.47 1.68 2.39 2.39 0 0 1-.57.55m-4.52-2.4a4.85 4.85 0 0 1-2.28 1.71m-.21-2.44a21.32 21.32 0 0 0 2.09-1.21 4.84 4.84 0 0 0-.82.36m-3.75-.2a4.32 4.32 0 0 1 1.59-1.41m-.77-1.29a3 3 0 0 0 1.31-1.14 2.94 2.94 0 0 0 .4-1m-3.46-2.18a3.32 3.32 0 0 1 1-.61 3.27 3.27 0 0 1 .5-.16m-1.91-3.78q1.59-.24 1.59-.26h-.38m1.27 5.6l1.72-.72m-1.62-2.28a4.77 4.77 0 0 1 2.17 0m-.02 6.46l1.11-1.56m15.03-.17a5.46 5.46 0 0 0 1.58-1.09 5.88 5.88 0 0 0 1-1.42 6 6 0 0 0 .33-.74m-3.45 5.12a2.07 2.07 0 0 0-1.27 1 1.84 1.84 0 0 0-.2.68m10.8.69a8.31 8.31 0 0 1-1.35 1.72 8.22 8.22 0 0 1-.7.61m-1.39-2.15a9.42 9.42 0 0 0-2.4 1.45 9.32 9.32 0 0 0-1 .92m-12.92 7.63a18.58 18.58 0 0 0 1.77-1.15l.63-.49m-5.91-4.56a3 3 0 0 1 1.14-1m.08 2.74a1.82 1.82 0 0 1 .59-1.21 1.73 1.73 0 0 1 .79-.39m-2.03-2.64l1.42-.69m-2.58-1.76a15.38 15.38 0 0 0 1.54-.25l.38-.09m-.25-2l1.08-1m3.66 1.53l2-2.27m-.11 4.49a4.87 4.87 0 0 0 2.67-2.51 3.83 3.83 0 0 0 .2-.68m-.44-2.32A9.12 9.12 0 0 1 185 303a9 9 0 0 1 1.15-1m.21 3.54a5 5 0 0 0-1 2.11m7.52-5.92l1.54-1.85m-3.9-2.26l2.17-2.46m3.5.2l4-1.42m-28.34 2.57a8.21 8.21 0 0 1 3.91-1.74m6.34-1.44a5.83 5.83 0 0 0 3.34-1.37 5.4 5.4 0 0 0 1-1.11m-9.99.75a29.23 29.23 0 0 1 3.14-.94c.82-.19 1.59-.34 2.32-.45m-1.27 10.6a4.09 4.09 0 0 0 2.89-.94 4 4 0 0 0 1.23-2m-1.47 14.68a7.66 7.66 0 0 0-1.36 1.56 7.56 7.56 0 0 0-.43.74m6.82-1.7a10.45 10.45 0 0 1-1.73 1.22c-.31.17-.6.32-.88.44m-5.49 1.14a3.67 3.67 0 0 0-1.35 1.06 3.55 3.55 0 0 0-.43.7m2.19.49c.48-.06 2.37-.33 3.08-1.73a2.39 2.39 0 0 0 .18-.45m14.98-5.62a4.75 4.75 0 0 0 1.77-.84 4.7 4.7 0 0 0 .89-.9m-5.95 8.17l1.55-2.59m4.07-1.13a6.36 6.36 0 0 1-1.93 2.63 5.92 5.92 0 0 1-.72.49m.75 2.22l3.54-2M192 317.53l2.74-2.51" class="cls-3"/>
        <path d="M156.94 269.77a16.57 16.57 0 0 1 .59 1.57 23.58 23.58 0 0 1 .83 5.45c.31 3.15.38 3.3.58 5.7.13 1.66.11 1.67.2 2.63 0 0 .25 2.64.83 5.45a70.21 70.21 0 0 0 3.93 11.91 94 94 0 0 0 14.85 24.63c4.25 5.09 9.33 9.3 19.49 17.72 11.94 9.9 17.49 13 22.71 15.12a64.63 64.63 0 0 0 10.94 3.38" class="cls-2"/>
        <path d="M175.66 325.4a6.6 6.6 0 0 1 3.87-3.11m-5.53.33l1.78-1.26m.7 4.85l3.07-1.4m1.96-2.5a9.48 9.48 0 0 1 1.66-1.63c.21-.16.43-.31.63-.45m-2.53-.72a4.59 4.59 0 0 0 2.76-.61c.19-.12.36-.26.93-.65s1.13-.75 1.48-1m2.56.04a4.7 4.7 0 0 0-1.3 1.71 4.47 4.47 0 0 0-.22.62m10.14-2.46a3.32 3.32 0 0 0-1.54 1.93 3.07 3.07 0 0 0-.07 1.29m-2.25-2.17a10.65 10.65 0 0 1-1.7 1.72c-.24.2-.48.37-.72.53m8.57.54a7.82 7.82 0 0 1 1.57-1.59l.46-.32m-12.81 1.37a18.6 18.6 0 0 0-1.24 1.64q-.25.38-.47.74m-1.98-.92a3.56 3.56 0 0 1-1 1.77 3.32 3.32 0 0 1-.59.45m3.49.57a2.16 2.16 0 0 0-1.13.14 3 3 0 0 0-1.32 1.43 6.12 6.12 0 0 0-.57 1.28m26.32-61.36a5.66 5.66 0 0 1 1.92-2.28 5.5 5.5 0 0 1 1.51-.72m-6.54-.87a18 18 0 0 0 4.73-1.91m7.62 3.15a22.23 22.23 0 0 1 1.54-1.91l.58-.66m-3.56-.15a9.23 9.23 0 0 0 .47-1.87c0-.26.06-.51.08-.75m8.43.3c.88-.46 1.82-.91 2.84-1.32l.76-.3m-2.39 6.65a3.42 3.42 0 0 0 1.47-1.56 3.21 3.21 0 0 0 .27-.93m-5.8 5.78a2.64 2.64 0 0 1 .84-1.61 2.37 2.37 0 0 1 .57-.36m-4.98.77a12.76 12.76 0 0 1 2.6-1.95m9.6-9.62a6.28 6.28 0 0 1-.55 2.61m4.52 4.97a11.09 11.09 0 0 1 .72-1.86 4.18 4.18 0 0 0 .39-1 3.63 3.63 0 0 0 .08-1.12m-4.58 4.98L233 264l-.45.8m29.56-5.9a11.6 11.6 0 0 1 .88 2.77m5.08-.84a4.49 4.49 0 0 0 0 1.94 6.67 6.67 0 0 0 .78 1.77 5.45 5.45 0 0 1-.3-.51m-1.99-9.03a2.45 2.45 0 0 1 1.6 1.28c.07.18.09.34.24.75a9.13 9.13 0 0 0 .48 1.13m6.12.99a8.57 8.57 0 0 1 2.3.67 5.9 5.9 0 0 1 1.17.71 5.26 5.26 0 0 1 .49.45m-78.32 74.08c.51-.53 1-1.12 1.53-1.76l.47-.62m1.82-1.05l1.34-2.27m-.37 7.64a6.18 6.18 0 0 0 1.17-2.31 6.06 6.06 0 0 0 .19-1.41M207 338a7.69 7.69 0 0 1 3.83-2m2.24 4.93a5.82 5.82 0 0 0 .54-2.07 5.76 5.76 0 0 0-.06-1.29m-3.82 7.63a11.53 11.53 0 0 1 1.42-2.18c.16-.19.31-.37.47-.53m-18.25-138.72c1.3.17 2.65.29 4 .37a45.81 45.81 0 0 0 16.71-1.84q.94-.29 1.8-.6m-34.41-.88a54.21 54.21 0 0 0 9 2.49m110.95-.05a22 22 0 0 0 5.56-1.47 23.88 23.88 0 0 0 7.09-4.53m-32.31 3.45a50.11 50.11 0 0 0 9 2.1 47 47 0 0 0 8.62.63m-69.81-7a24.34 24.34 0 0 1-8.4 11.67m46.46-10.18a17.3 17.3 0 0 0 3.9 5.08 17.08 17.08 0 0 0 3.08 2.19m-6.96-16.35c2.66-3.53 4.39-6.05 5.57-8a8.81 8.81 0 0 1 2.3-2.62 8.7 8.7 0 0 1 3.45-1.52m-51.32 9.69a28.72 28.72 0 0 0-8.42-10.4 21.58 21.58 0 0 0-7.8-4 20.61 20.61 0 0 0-7.87-.53" class="cls-3"/>
        <path d="M203.08 184.5a3.14 3.14 0 0 0-1.12 1.31 2.62 2.62 0 0 0 .06 2.56 2.48 2.48 0 0 0 2.56.81 2.75 2.75 0 0 0 1.84-1.59 2.47 2.47 0 0 0-.41-2.53 2.08 2.08 0 0 0-.75-.5" class="cls-2"/>
      </g>
      <g id="Layer_36" data-name="Layer 36">
        <path d="M156.55 150.43c-.51.65-.89 1.17-1.06 1.42a23.16 23.16 0 0 0-3.74 8.93c-.11.57-.17 1-.21 1.37" class="cls-3"/>
        <path d="M163.69 145.19a2 2 0 0 1-1.07.42c-1.41.2-2.94 1.41-4.23 2.72m12.9-45.25c-.29.42-.7 1-1.16 1.83a33.8 33.8 0 0 0-2.1 4.63c-1.92 5.4-2.23 9.82-2.64 15.78-.23 3.35-.65 8.45-1.29 14.92m39.82-62.81a23.87 23.87 0 0 1-10.72 7.1c-4.11 1.24-6.62.57-10.22 2.8-1.77 1.1-3 2.42-6.14 7l-.39.58m147.86 12.69a26.41 26.41 0 0 0 5.13 11.62 17.39 17.39 0 0 1 3.62 6.49c1 3.85-.19 5.79 0 10.42.2 3.93 1.21 5.11 2.39 9.63a51.4 51.4 0 0 1 1.63 11.61m-50.69-78.1a72.47 72.47 0 0 1 7.54 2.16A75.17 75.17 0 0 1 305 86.56c6.87 3.88 11.37 6.43 15 11.21m-64.94-17.35c2.34-.15 4.5-2.08 7.77-3 1.58-.45 3.17-.43 6.34-.38a79.41 79.41 0 0 1 13.36 1.43m-76.79-3.26a26.83 26.83 0 0 1 7.59-2.53A37.34 37.34 0 0 1 230 74a13.72 13.72 0 0 0 3.07.73c2.42.28 3.62-.25 5.26-.4 3.69-.33 7.18 1.52 13.09 4.82m70.13 21.39a20.66 20.66 0 0 0 6.07 6.25" class="cls-2"/>
      </g>
      <g id="Layer_38" data-name="Layer 38">
        <path d="M143.27 143.83c.48-1.3 1-2.67 1.66-4.09a55.91 55.91 0 0 1 9.56-15.74 49.85 49.85 0 0 1 9.87-8.52" class="cls-3"/>
        <path d="M140.82 151.78c.35-1.42.81-3.1 1.42-5" class="cls-2"/>
        <path d="M161.39 135.56a49.26 49.26 0 0 0-13.91 27M143 123.44a48.89 48.89 0 0 0 7.61-5.6c4-3.61 5.29-6 8.43-9.09a38.5 38.5 0 0 1 5.32-4.4m11.43-13.65a21.54 21.54 0 0 0-7.67 1.48c-2.5 1-3.88 2.13-8.21 4.09-2.22 1-4.09 1.72-5.34 2.17m32.84-29.77l1.17.29c5.25 1.22 8 1.62 11.43 3.6A24 24 0 0 1 202.2 74" class="cls-3"/>
        <path d="M179.78 71.47a3.55 3.55 0 0 0 .73-2.36c-.16-1.52-1.57-2.21-1.39-2.59.25-.53 3.11.68 6.88 1.76" class="cls-2"/>
        <path d="M208.39 70.47c-2.41-3-6.06-8.52-5.94-15.62a20.35 20.35 0 0 1 .22-2.66m-9.61 9.22a53.59 53.59 0 0 0 9.9 9.28m23.33-.69a53.2 53.2 0 0 1 5.08-10.14c.36-.52 2.13-3 4.25-6.54.47-.78.66-1.11.84-1.42a28.72 28.72 0 0 1 7.37-7.9m1.55 29.2c6.46-6.78 10.43-9.17 12.24-10.09.65-.33 4-2 8.16-3.92l3.11-1.44c2.5-1.14 7-3.05 14.15-5.56M255.71 76.9c2.17-1.72 4.13-3.22 5.82-4.47a44.79 44.79 0 0 1 11.21-6.53c2.93-1.15 5.37-1.61 10.12-2.48 3.75-.69 9-1.51 15.39-2.06M233.81 72.2c3.41-4 6.53-7.22 9.08-9.72a76.79 76.79 0 0 1 9.75-8.61 57.87 57.87 0 0 1 13.78-7.26m-48.64 22.82a83.06 83.06 0 0 0 2.34-8.86 26.8 26.8 0 0 1 2.53-7.57c.26-.5.41-.74.91-1.61 1.55-2.73 2.72-5 3.5-6.56m-16.78 25.32q.18-3.14.54-6.52a72.43 72.43 0 0 1 1-7.48 47.42 47.42 0 0 1 1.75-6.09m-22.39 32.35a65.22 65.22 0 0 0-16.75-2.11m103.82-4.6a29.72 29.72 0 0 1 6.6-2.64c2.54-.67 4.35-.77 8.45-1.83 2.81-.73 3.47-1.2 5.7-1.72a32.66 32.66 0 0 1 7.48-.85" class="cls-3"/>
        <path d="M312.37 74.51a18.52 18.52 0 0 0 3.87.45 15.18 15.18 0 0 0 3-.19c1.08-.19 1.95-.48 2-.34s-1.8.79-1.91 1.84c-.06.61.48 1.19 1.09 1.65" class="cls-2"/>
        <path d="M286.74 77.35c3.6-1 11.09-3 17.25-3.12a60.82 60.82 0 0 1 6.45 0M302 82.31c1.83-.29 4.07-.62 5.89-.76a18.64 18.64 0 0 1 2.5-.08c1.46.07 2 .29 3.37.32 1.12 0 1.27-.13 2.5-.2a17.93 17.93 0 0 1 3.75.2m-6.16 8.1a24.52 24.52 0 0 1 3.33.59 35.75 35.75 0 0 1 7.69 3.15c2.07 1 2.18 1.24 3.83 2.08a41.93 41.93 0 0 0 7.94 3m-6.31 8.13c1.42.76 2.88 1.63 4.36 2.62a40.65 40.65 0 0 0 4.31 3.21 24.49 24.49 0 0 0 5.45 2.36M332 119a43 43 0 0 1 7.74 5.67 46.56 46.56 0 0 1 4.9 5.35 70.32 70.32 0 0 1 7.65 11.65m-17.21-4.98a28.79 28.79 0 0 1 4.6 4.88 26 26 0 0 1 3 5.19c.67 1.58.62 2.07 1.18 3.52a19.3 19.3 0 0 0 3.39 5.57m-5.77 9.4a28.81 28.81 0 0 1 3.73 6.8" class="cls-3"/>
        <path d="M337.67 161a29.71 29.71 0 0 1 2.12 2.14" class="cls-2"/>
        <path d="M151 166.83a37.54 37.54 0 0 0-.87 6.53c-.2 4.53.54 6.69.15 11.26a34.56 34.56 0 0 1-1.26 6.73m196.56-15.57a44.61 44.61 0 0 0 2.25 19.11" class="cls-3"/>
        <path d="M166.79 102.93a11.81 11.81 0 0 1 1.39-.85 15.7 15.7 0 0 1 3.4-1.18c1.08-.35 2.45-1.35 3.65-4.24" class="cls-2"/>
      </g>
    </g>
  </g>
</svg>